<svg viewBox="0 0 40 40" xmlns="http://www.w3.org/2000/svg"><symbol viewBox="0 0 40 40" id="AbandonedBuilding"><title>Abandoned Structure</title><rect width="40" height="40" rx="5" ry="5"/><path d="M32.5,13.84v3.75H31.25V16.25h-1v4.14h-.89V21h-.59v1.25H27.5V20H26.25V16.38H23.88V15.13H22.81V19.7H17.69V15.23H20V13.75H18.56V12.5H15V11.19H12.5v2.69H10V10.13H8.85V8.95H7.6V8H6.35V32.41H17.6V23.66h.13v-1h1.12v1H22.5v8.75H33.75V13.84Zm-22.69,6v-5h3.85v5H11.51v1.35H9.81Zm4.06,8.75H10v-5h3.88ZM30,28.5H26.11v-5H30Z" fill="#fff"/></symbol><symbol viewBox="0 0 40 40" id="UV"><title>UV Light Required</title><rect width="40" height="40" rx="5" ry="5"/><path d="M14.75,21.66a4.79,4.79,0,0,1-.46,2.5,2.34,2.34,0,0,1-2.19,1.18,2.41,2.41,0,0,1-2.2-1.25,5,5,0,0,1-.46-2.5v-10H6.14v10c0,2.19.22,3.6,1.73,5a6.08,6.08,0,0,0,4.26,1.68,5.87,5.87,0,0,0,4.19-1.56c1.25-1.15,1.73-2.6,1.73-5v-10H14.75Zm16.7-10-4.12,12.4L23.24,11.63h-3.4L25.66,28H29l5.85-16.33Z" fill="#fff"/></symbol><symbol viewBox="0 0 40 40" id="available"><title>Available at all times</title><rect width="40" height="40" rx="5" ry="5"/><path d="M5.55,26h6.52V24.29H7.94c1.34-1.38,2.34-2.4,3.06-3.3a4.24,4.24,0,0,0,1-2.79,3.19,3.19,0,0,0-2.94-3.42H8.75a3.15,3.15,0,0,0-2.34.89,3.9,3.9,0,0,0-1,2.81H7.31c0-1.49.75-1.9,1.47-1.9a1.41,1.41,0,0,1,1.39,1.59c0,.92-.4,1.56-1.65,2.86-.75.8-1.7,1.86-3,3.18Z" fill="#fff"/><path d="M16.66,26h1.71V23.75h1V22.17h-1V15H16.61l-4,7.23v1.52h4.06Zm-2.5-3.75,2.5-4.65v4.65Z" fill="#fff"/><path d="M27.89,15v1.61H32.3L28.75,26h1.93l3.5-9.52V15Z" fill="#fff"/><polygon points="21.82 29.92 19.66 29.92 24.84 10.42 27 10.42 21.82 29.92" fill="#fff"/></symbol><symbol viewBox="0 0 40 40" id="bicycles"><title>Bicycles</title><rect width="40" height="40" rx="5" ry="5"/><path d="M3.56,23.4a6.25,6.25,0,0,0,6.25,6.25A6.36,6.36,0,0,0,15.94,25l1.91.35a1.09,1.09,0,0,0,.5.54L18,27.5h-.44v.44l1.38.06v-.5h-.34L19,25.89a.88.88,0,0,0,.76-1.16L26,17.65l.27.76a6.09,6.09,0,1,0,1-.62l-1.8-5,.57-1L24.9,10.56H22.4v.7h2.15l.44.48-.5.91.64,2.25H16.25l-.14-.41a6.4,6.4,0,0,0,2.27-.74c.29-.25,0-.49-.3-.5-1.74-.08-4.33-.23-4.81-.23s-.54.24-.21.6a2.5,2.5,0,0,0,1.86.87l.34.9L13.18,18a6.53,6.53,0,0,0-3.32-.91,6.25,6.25,0,0,0-6.29,6.21S3.56,23.36,3.56,23.4Zm23.15-3.75a7.6,7.6,0,0,0,2.76,3.62.65.65,0,0,0,.61.69h0a.68.68,0,0,0,0-1.35A6.39,6.39,0,0,1,27.63,19a5.09,5.09,0,1,1-2.5,4.4,5,5,0,0,1,1.59-3.72ZM16.71,16h8.75l.14.41-6,6.69.06-.81H20v-.44H18.83v.47h.28l-.1.74Zm-.51,7.35a6.31,6.31,0,0,0-2.1-4.85l1.6-1.91,2.5,7.5-2-.2c-.09-.1-.06-.34-.06-.51ZM15,23.69,10.63,23l2.71-3.52a5.06,5.06,0,0,1,1.59,4.26ZM4.79,23.38a5.1,5.1,0,0,1,5.09-5.09,5.59,5.59,0,0,1,2.69.65L9.78,22.63a.68.68,0,0,0,0,1.35.76.76,0,0,0,.3-.06l4.62.89a5.09,5.09,0,0,1-10-1.39Z" fill="#fff"/></symbol><symbol viewBox="0 0 40 40" id="boat"><title>Boat</title><rect width="40" height="40" rx="5" ry="5"/><path d="M18.86,18.84,17.61,16.6l-2.8-.16-.39-.72L26,15.63l1.86,3.13h8.94l-4.59,5.79a2.14,2.14,0,0,1-2.37.72,2.2,2.2,0,0,1-1-.64,2.43,2.43,0,0,1-1.45.7A2.5,2.5,0,0,1,25.94,25a2.85,2.85,0,0,1-.59-.49,2.5,2.5,0,0,1-.84.51,2.43,2.43,0,0,1-1.38,0A2.28,2.28,0,0,1,22,24.31a2.85,2.85,0,0,1-.91.55,2.48,2.48,0,0,1-2.62-.64,2.66,2.66,0,0,1-.91.49A2.43,2.43,0,0,1,15.08,24a2.36,2.36,0,0,1-1,.65,2.33,2.33,0,0,1-1.43,0A2.26,2.26,0,0,1,11.61,24a2.56,2.56,0,0,1-1,.57,2.35,2.35,0,0,1-1.47,0A2.41,2.41,0,0,1,8,23.75a1.88,1.88,0,0,1-.59.54,1.8,1.8,0,0,1-1.37.15A1.93,1.93,0,0,1,5.31,24l-2.26-5.1Zm1.79-2.35,1.25,2.4h4.67L25.45,16.6Z" fill="#fff"/></symbol><symbol viewBox="0 0 40 40" id="campfires"><title>Campfires</title><rect width="40" height="40" rx="5" ry="5"/><path d="M13.86,26.25s13.62,4.25,14.23,4.6.13,1.8-.53,2S13.15,28.35,12.81,28,13.15,26.06,13.86,26.25Z" fill="#fff"/><path d="M12,30.74s13-4.89,13.5-4.83a2.66,2.66,0,0,1,1.25,2c-.13.54-13.75,5-14,5A2.22,2.22,0,0,1,12,30.74Z" fill="#fff"/><path d="M18.14,25s-5-2.44-3.75-7.77C14.42,17.27,8.82,24.32,18.14,25Z" fill="#fff"/><path d="M19.44,25c-.21.21-2.27-2.5-2.39-2.63-1.19-1.86-2.42-5.44-1.11-7.5a12.26,12.26,0,0,1,1.38-1.58,7.16,7.16,0,0,0,2-6.42c.19.76,1.63,1.73,2.11,2.39a11.67,11.67,0,0,1,.92,1.47,11.44,11.44,0,0,1,1.25,3.9C24.22,18.66,22.17,22.27,19.44,25Z" fill="#fff"/><path d="M20.79,24.76A8.75,8.75,0,0,0,24.36,21a9.58,9.58,0,0,0,.45-2.94A18.75,18.75,0,0,1,25,15.64a5.08,5.08,0,0,1,1.76,2.7,6.11,6.11,0,0,1,.35,2.6A4.16,4.16,0,0,1,24,24.4C23,24.64,21.8,24.61,20.79,24.76Z" fill="#fff"/></symbol><symbol viewBox="0 0 40 40" id="camping"><title>Camping available</title><rect width="40" height="40" rx="5" ry="5"/><path d="M20,31.6H3.29V29.47h3.5L20,8.34,33.24,29.47h3.42V31.6H20Zm0-11-5.5,8.88h11Zm16.65,8.88h0" fill="#fff"/></symbol><symbol viewBox="0 0 40 40" id="cliff"><title>Cliff / falling rocks</title><rect width="40" height="40" rx="5" ry="5"/><polygon points="4.55 31.63 27.88 31.63 28.68 29.95 27.21 28.98 27.21 25.89 24.79 24.49 22.19 19.07 22.68 18.21 21.7 16.1 23.65 11.29 21.27 8.25 4.55 31.63" fill="#fff"/><polygon points="28.68 27.51 31.16 30.44 34.58 30.32 36.64 28.81 35.34 24.7 33.65 23.3 31.39 23.73 28.68 27.51" fill="#fff"/><polygon points="28.25 16.91 26.9 18.43 26.51 20.32 27.6 21.24 29.88 20.59 30.2 18.26 28.25 16.91" fill="#fff"/><polygon points="24.73 13.82 24.24 15.66 25.76 16.21 26.95 14.7 24.73 13.82" fill="#fff"/><polygon points="24.57 17.24 23.54 18.49 24.68 19.77 25.65 18.75 24.57 17.24" fill="#fff"/><polygon points="29.11 22.32 27.76 22.44 27.65 24.6 29 24.32 29.76 23.19 29.11 22.32" fill="#fff"/></symbol><symbol viewBox="0 0 40 40" id="climbing"><title>Difficult climbing</title><rect width="40" height="40" rx="5" ry="5"/><path d="M7.93,34.22l1.19-.79.4-2,1.91-.33,2.83-9.21-.13-.4V21a1.54,1.54,0,0,1,0-.29l.72-6.85a.42.42,0,0,1,.28-.34l9-1.51a2.5,2.5,0,0,1,.46-.49,1.25,1.25,0,0,1,.59-.3h.25l2.24-.72,1.51-4.67h3.16V34.22Zm12.76-8,3.49-13.42-5.86,1.84q-.24,1.15-.53,2.3c-.1.41-.19.81-.3,1.25s-.28,1-.43,1.49L21.4,21h.09a.37.37,0,0,1,.11.1v.2Zm-7.9,4.41,2-.06,4.55-3.69.33-4.67-2.89.06Z" fill="#fff"/><path d="M13.65,19.39a.24.24,0,0,1-.26.21h0l-1.08-.1a.24.24,0,0,1-.21-.26h0l.54-5.75a.25.25,0,0,1,.26-.23l1.07.11a.24.24,0,0,1,.21.26h0Z" fill="#fff"/><circle cx="16.41" cy="10.92" r="1.71" fill="#fff"/></symbol><symbol viewBox="0 0 40 40" id="cow"><title>Watch for livestock</title><rect width="40" height="40" rx="5" ry="5"/><path d="M11.6,23.91c-.14,1.25.41,1.52,1.06,3.11.26.63,1,.46,1.14,1.31l-2.06-.11c-.25-.09-.13-.68-.3-.89s-.4-.2-.5-.5a6.1,6.1,0,0,0-1.25-3.59,4,4,0,0,0-.91,3.34,2,2,0,0,0,.8,1.59c.39.17.55.46.45.59a15.81,15.81,0,0,1-2.3,0c-.11,0-.06-1.14-.06-1.14s-.41,0-.25-.72a7.5,7.5,0,0,0-.19-4.59c0-.64.69-.25.69-1.36,0-.8-.22-1.61-.19-2.41.11-1.86.59-3.34.41-3.34-.41,0-.81,2.93-.81,4.09,0,.38.2.81.2,1.34s-.86,1.25-.86,1.75-.12,1.48-1,1.48c.6-1.11-.06-1.71-.06-2.25,0-.85,1.25-1.14,1.25-1.61-.16-3.09-.07-7.17,2.5-6.43.33.1.65-.23,1-.23,1.25,0,3.39.45,8.1.45,4.48,0,3.75-.59,5.36-.56a16.52,16.52,0,0,1,2,.25,3.75,3.75,0,0,0,2-.45c.15-.25-.49-.33-.6-.55a.68.68,0,0,1,.21-.74c.15-.08,1,.4,1.25.44s.16-.77,1-.77c1.15,0,1.93.72,3.05-.11,0,.29,0,.87-1.1,1-.44,0-1-.16-1.25,0,1.65.8,1.14,1.25,2.41,2.19a5.21,5.21,0,0,1,1.25,1.12c.06.15-.09.4-.16.51s0,.61-.34.69-1,.08-1.16.15a5.71,5.71,0,0,1-1.91,0c-1.19-.18-1.84,1.1-2.5,2.1s-1.4,1.75-1.41,2.3,0,1.18-.68,1.41-.79-.06-1,.11-.11.84-.11,1.15c0,.64-.89,2.1,0,3.55.47.79,1.34.55,1.31,1.25a8.29,8.29,0,0,1-1.89-.06c0-.15,0-.5-.19-.64s-.31-.06-.36-.23c-.16-.64.5-2.14-1-3.64,0,0-.74,2.59.13,3.36.4.36,1.06.63.92.89a17.18,17.18,0,0,1-2.17-.09c-.16-.33,0-.62-.23-.78-.75-.54-.11-.91-.06-1.5a15.08,15.08,0,0,1-.14-1.6c.09-2.3-.89-2-2-2.13-.65-.06-1.74.46-2.31.41a2.5,2.5,0,0,0-1.36.11,7,7,0,0,0-.56.5c-.19.15-.67.26-.71.37s0,.55-.26.57-.48-.43-.48-.43H13s-.14.45-.4.45-.26-.55-.38-.62S11.68,23.75,11.6,23.91Z" fill="#fff"/></symbol><symbol viewBox="0 0 40 40" id="danger"><title>Dangerous area</title><rect width="40" height="40" rx="5" ry="5"/><path d="M28.5,31.25A2.71,2.71,0,0,1,26.17,31c-1.48-.66-3.16-1.49-4.76-2.31l2.79-1.38c.71-.2,2-1.25,3-.55s1.61.1,1.71-.71-.2-.91-.4-1.06c0-.55.61-1.78-.91-1.61s-.25,1-2.84,2.33c0,0-2,1.11-4.52,2.41-2.56-1.34-4.62-2.5-4.62-2.5-2.58-1.31-1.31-2.17-2.84-2.33S12,24.35,11.9,24.9c-.2.15-.5.25-.4,1.06s.66,1.36,1.71.71,2.32.35,3,.55l2.9,1.44c-1.63.84-3.36,1.69-4.88,2.36a2.7,2.7,0,0,1-2.32.25c-.66,0-2,.91-.15,1.72,0,1,1.11,2,1.61.86.28-.65-.2-1.06,1.06-1.71s3.69-1.86,5.79-2.91c2.09,1,4.44,2.21,5.69,2.86s.78,1.08,1.06,1.71c.5,1.16,1.66.15,1.61-.86C30.47,32.14,29.16,31.18,28.5,31.25Z" fill="#fff"/><path d="M20.24,25a5.54,5.54,0,0,1-3.75-2.27l-.24-2.84.35.2c.1.61.1,1.25.76,1.61,0,.78.51,1.69.55.25.3-.2.53,0,.5.3s.34.41.35.15a.34.34,0,0,1,.66.1c0,.61.58.64.64,0a.2.2,0,0,1,.2-.2h0a.2.2,0,0,1,.21.19h0c0,.65.61.56.64,0s.65-.44.66-.1.37.29.35-.15.2-.5.5-.3c0,1.44.59.51.56-.25.66-.35.66-1,.76-1.61l.35-.2-.25,2.89A5.54,5.54,0,0,1,20.31,25Z" fill="#fff"/><path d="M27.5,10.63c-.2-1.66-.76-5-7.07-5s-7.26,3.34-7.5,5a8.35,8.35,0,0,0,1.25,4.85v2.37c0,.61.1,1,.81,1,1.71,0,2.07.71,2.07,1.16,0,.09.26.25.26.25.09-.66.85-.74.61,0s.13.79.31.81,0-.31.14-.6.89-.37.51.36.53,1.08.48,0c0-.69.25-.91.45-.85s.3.5.16.85,0,.76.24.78.37-.44.24-.78,0-.79.16-.85.49.16.45.85c0,1,.8.61.47,0s.36-.76.51-.36,0,.63.14.6.6.11.31-.81.51-.71.61,0c0,0,.24-.16.26-.25,0-.45.35-1.16,2.07-1.16.71,0,.81-.35.81-1V15.48A8.35,8.35,0,0,0,27.5,10.63ZM17.05,16.71a1.87,1.87,0,0,1-1.9-1.85s0,0,0-.05a1.63,1.63,0,0,1,1.58-1.67H17c1.05,0,1.88.43,1.88,1.46a2.3,2.3,0,0,1-1.76,2.11Zm3.57.94c0-.64-.13-.5-.43-.55.23.91-.4,1.11-.94.94s-.5-.71-.2-1.41l.66-1.31c.42-.74.79-.69,1.16,0a9.39,9.39,0,0,1,.84,2c.2.72-1,1-1.09.33Zm2.77-.94a2.3,2.3,0,0,1-1.78-2.1c0-1.05.82-1.46,1.88-1.46a1.63,1.63,0,0,1,1.79,1.66,1.87,1.87,0,0,1-1.84,1.91H23.4Z" fill="#fff"/></symbol><symbol viewBox="0 0 40 40" id="dangerousanimals"><title>Dangerous animals</title><rect width="40" height="40" rx="5" ry="5"/><path d="M6,30.92a.49.49,0,0,0,.39.2h0a.49.49,0,0,0,.49-.49V29.55a.49.49,0,0,0-.49-.49h0A.49.49,0,0,0,6,29.3l-.61.81Z" fill="#fff"/><path d="M7.66,29.22v1.72a.48.48,0,1,0,1,0V29.22a.48.48,0,0,0-1,0Z" fill="#fff"/><path d="M9.41,29v2.13a.48.48,0,1,0,.95,0h0V29a.47.47,0,0,0-.95,0Z" fill="#fff"/><path d="M28.75,17.14c-.21-.25-.71-1.14.59-2.5l.53-.53h1.25a.78.78,0,0,0,.71-.4l1.55-3.12a.75.75,0,0,0-.14-.89l-.85-.85a.75.75,0,0,0-.88-.14l-3.17,1.54a.78.78,0,0,0-.4.7V12.2l-.51.51c-2.5,2.5-1.71,5.09-.6,6.25l2.26,2.29a5.25,5.25,0,0,1,1.6,3.62,5.26,5.26,0,0,1-1.61,3.64,5.16,5.16,0,0,1-8.75-3.64v-5a6.1,6.1,0,1,0-12.2,0h0a6.25,6.25,0,0,0,1.81,4.35l1.94,2,.43.5a1.31,1.31,0,0,1,.2.72,1.34,1.34,0,0,1-1.34,1.28v2.7A4,4,0,0,0,14.41,25l-.54-.64-2-2a3.47,3.47,0,0,1-1-2.5,3.4,3.4,0,0,1,6.8,0v5A7.91,7.91,0,1,0,31,19.26Z" fill="#fff"/><polygon points="33.9 8.55 35.24 8.55 35.24 8.05 34.04 8.06 34.05 6.86 33.55 6.86 33.55 8.2 32.94 8.8 33.29 9.16 33.9 8.55" fill="#fff"/></symbol><symbol viewBox="0 0 40 40" id="dogs"><title>Dogs</title><rect width="40" height="40" rx="5" ry="5"/><path d="M28.41,32.5c-3.26.51-2.74-1.25-2.77-3.29l-.19-4-.84,3.84c-.15.72-.35,1.4.69,1.94.72.64-.1,1.52-.88,1.41-2.39.07-2-1.51-1.84-2.64l.14-1.62c.1-1.11.31-1.8.36-3.35L22.76,24a26.7,26.7,0,0,1-6.36-2.24L15,22c-.65.1-.48.86-.55,1.36l-.21,1.35L13,27.76,12.9,28a2.24,2.24,0,0,0,.25,1.49l.63,1.25c.5.72.63,2.5-.7,1.95l-1-.43c-.7-.29-1.25-2.25-1.53-3.75v-2C10,26.45,9.71,30,10,30.8l.61,1.88c.19.61-.51.82-1,.82-1.16,0-1.69-1.19-1.94-2.17l-.16-.75A5.94,5.94,0,0,1,8,26.68l.26-.62A3.56,3.56,0,0,0,8,23.28c-.5-2-.9-4,.5-6l.1-.14a5.16,5.16,0,0,1-.69-1.25c-.61-1.71-1.09-4.54-.37-4.54h.44c1.12,0,.8,4.66,2.14,4.36l9.71.1,1.7-.46a6.64,6.64,0,0,0,1.72-.91l1.11-.69a10.51,10.51,0,0,0,4.23,2.74A14.55,14.55,0,0,1,28,23.46l-.19.91a19.79,19.79,0,0,0-.37,5v.79c0,.8.44.86,1.08,1.05a.77.77,0,0,1-.11,1.29Z" fill="#fff"/><path d="M30.46,9.31A12,12,0,0,1,32.2,10.9l.68.72c.44.46,1.11.4,1.7.51h.21c.65.34.44,1,.23,1.55l-.14.33a2.58,2.58,0,0,1-3.48,1.06l-.27-.16-.57-.3h-.19l-.4.26-.82.65A12.11,12.11,0,0,1,25,12.75l2.5-3.14.84-1.25.17-.4.21-.36c.15-.5.79-1,1.25-.79a1.51,1.51,0,0,1,.61,1.47l-.11.5Z" fill="#fff"/></symbol><symbol viewBox="0 0 40 40" id="fee"><title>Access or parking fee</title><rect width="40" height="40" rx="5" ry="5"/><path d="M21.79,4.34H18.34V7c-3.62.36-5.76,3.15-5.76,6.81,0,4.35,2.79,5.9,5.29,6.91,2.83,1.12,5.57,1.85,5.57,4.75A3.31,3.31,0,0,1,20.37,29h-.16a3.65,3.65,0,0,1-3.75-3.54q0-.15,0-.29H12c0,3.88,2.35,7.31,6.25,7.5v3h3.44v-3c3.84-.17,6.12-3.51,6.12-7.25,0-4.71-3-6.45-5.54-7.5-2.75-1.16-5.44-1.85-5.44-4.24a2.84,2.84,0,0,1,2.66-3h.21a3.33,3.33,0,0,1,3.2,3h4.28c-.15-3.19-1.85-6.09-5.44-6.74Z" fill="#fff"/></symbol><symbol viewBox="0 0 40 40" id="field_puzzle"><title>Field Puzzle</title><rect width="40" height="40" rx="5" ry="5"/><path d="M27.83,22.66c1.18.44,1.91,1.32,3.1,1.18s1-1.91,1.32-4.87-1.32-2.5-1.32-2.5c-5.65,1.25-8,0-9-1.25a4.8,4.8,0,1,0-3.9,0c-1,1.32-3.37,2.5-9,1.25,0,0-1.62-.44-1.32,2.5S7.8,23.69,9,23.84s1.91-.74,3.1-1.18,2.5.44,2.5,2.66-1.48,4.43-3.84,3S8.08,29.9,8.08,29.9s-.44,3.84.44,4.28,9.21.33,11.42.3,10.65.09,11.42-.3.44-4.28.44-4.28-.3-3.1-2.66-1.62-3.84-.74-3.84-3S26.65,22.23,27.83,22.66Zm-7.17,8.59h-2V29h2ZM21.9,25.1c-1.25,1.18-1.25,1.39-1.25,3h-2c0-1.25-.19-2.35.71-3.42s1.87-1.5,1.87-2.5A1.36,1.36,0,0,0,20,20.68h-.21A1.39,1.39,0,0,0,18.41,22s0,.08,0,.12a3.75,3.75,0,0,0,0,.43h-2V22a3.19,3.19,0,0,1,3.12-3.25l.41,0A3.35,3.35,0,0,1,23.35,22q0,.1,0,.19a3.75,3.75,0,0,1-1.51,2.9Z" fill="#fff"/></symbol><symbol viewBox="0 0 40 40" id="firstaid"><title>Needs maintenance</title><rect width="40" height="40" rx="5" ry="5"/><rect x="4.23" y="3.91" width="32.26" height="32.26" fill="none"/><path d="M18.9,8.45a7.37,7.37,0,0,0-7.06-1.93l4.84,4.84-1.45,4-3.85,1.25-4.83-4.8a7.38,7.38,0,0,0,10,8.64L28.86,32.77a2.77,2.77,0,1,0,3.91-3.91h0L20.46,16.55A7.38,7.38,0,0,0,18.9,8.45Zm12.6,23a1.34,1.34,0,1,1,0-1.89h0A1.34,1.34,0,0,1,31.5,31.48Z" fill="#fff"/></symbol><symbol viewBox="0 0 40 40" id="flashlight"><title>Flashlight required</title><rect width="40" height="40" rx="5" ry="5"/><path d="M18.64,14.76a1.08,1.08,0,0,0-1.45-.45l-3.81,2a1.07,1.07,0,0,0-.44,1.45L13.62,19l5.71-3Z" fill="#fff"/><path d="M27.75,9.06,24,11a1.72,1.72,0,0,0-.85,1l-1,3.39a.76.76,0,0,1-.37.46L5.67,24.51l3.61,6.74,16.15-8.6a.78.78,0,0,1,.6,0l3.38,1.05a1.73,1.73,0,0,0,1.34-.13l3.75-2a.39.39,0,0,0,.19-.45l-6.46-12A.39.39,0,0,0,27.75,9.06Z" fill="#fff"/></symbol><symbol viewBox="0 0 40 40" id="food"><title>Food Nearby</title><rect width="40" height="40" rx="5" ry="5"/><path d="M19.15,15a2,2,0,0,1-2,2V33a1.56,1.56,0,1,1-3.1,0V17a2,2,0,0,1-2-2s0-.06,0-.09V6.14a.56.56,0,0,1,1.11,0v6.49h.92V6.05a.54.54,0,1,1,1.06,0v6.58h1V6.06a.52.52,0,1,1,1,0v6.56h.94V6.06a.54.54,0,0,1,1.09,0Z" fill="#fff"/><path d="M27.41,8.13V33a1.55,1.55,0,0,1-3.1,0h0V23.13H22.65v-15a2.39,2.39,0,1,1,4.76,0Z" fill="#fff"/></symbol><symbol viewBox="0 0 40 40" id="frontyard"><title>Front Yard (Private Residence)</title><rect width="40" height="40" rx="5" ry="5"/><rect x="2.92" y="26.09" width="33.56" height="0.84" fill="#fff"/><rect x="2.92" y="30.96" width="33.56" height="0.84" fill="#fff"/><rect x="2.96" y="24.62" width="0.75" height="8.36" fill="#fff"/><rect x="6.61" y="24.62" width="0.75" height="8.36" fill="#fff"/><rect x="10.25" y="24.62" width="0.75" height="8.36" fill="#fff"/><rect x="13.9" y="24.63" width="0.75" height="8.36" fill="#fff"/><rect x="17.55" y="24.63" width="0.75" height="8.36" fill="#fff"/><rect x="21.19" y="24.62" width="0.75" height="8.36" fill="#fff"/><rect x="24.84" y="24.61" width="0.75" height="8.36" fill="#fff"/><rect x="28.47" y="24.63" width="0.75" height="8.36" fill="#fff"/><rect x="32.12" y="24.61" width="0.75" height="8.36" fill="#fff"/><rect x="35.76" y="24.63" width="0.75" height="8.36" fill="#fff"/><path d="M27.5,6.63l-9.25,9.2H19.5V24.5H21V23.44h1.25V24.5h2.31V22.19h5V24.5h2.35V23.44h1.25V24.5H35.5V15.82h1.25ZM26,19.8H22.5V16.34H26Zm6.49,0H29V16.34H32.5Z" fill="#fff"/><rect x="2.9" y="22.25" width="15.57" height="1.21" fill="#fff"/></symbol><symbol viewBox="0 0 40 40" id="fuel"><title>Fuel Nearby</title><rect width="40" height="40" rx="5" ry="5"/><path d="M32.4,14.28v.6c-1.25.19-1.62.76-1.38,2.15a81.57,81.57,0,0,1,1.05,8.81,4,4,0,0,1-3.66,4.36h-.3A4.3,4.3,0,0,1,24,25.89c.11-1.85,0-3.75,0-5.56,0-.91-.14-1.8-1.45-1.8V30.37l1.15.37v1.9H7.7V30.54l1.25-.06V10.11A2.83,2.83,0,0,1,10.71,7h10a2.71,2.71,0,0,1,1.79,3.08c-.16,2,0,4.1,0,6.12,2.5.36,3.61,1.61,3.61,4.1v4.51c0,2,.79,3.29,2,3.26s2-1.5,1.91-3.45v-.45c-.39-2.93-.74-5.86-1.25-8.75-.35-2.24-1.12-4.31-3.25-5.49a2.42,2.42,0,0,1-1.55-2.9h.6l1.39.67A14.86,14.86,0,0,1,32.4,14.28Zm-21.63,2h9.45v-7H10.77Z" fill="#fff"/></symbol><symbol viewBox="0 0 40 40" id="geotour"><title>Geotour</title><rect width="40" height="40" rx="5" ry="5"/><path d="M32,13.19H26V10.77a2.41,2.41,0,0,0-2.41-2.4H16.36a2.41,2.41,0,0,0-2.41,2.41h0V13.2h-6a2.41,2.41,0,0,0-2.41,2.41h0V28.84a2.41,2.41,0,0,0,2.41,2.41H32a2.41,2.41,0,0,0,2.41-2.41h0V15.6A2.41,2.41,0,0,0,32,13.19ZM9.28,21.86l7.94-5.46,1.54,2.35-7.88,5.43Zm9.93,6.55c-2.07,0-3.75-1-3.75-2.26s1.69-2.26,3.75-2.26S23,24.9,23,26.15s-1.7,2.26-3.74,2.26Zm4.39-15.13H16.25v-2.5h7.33Zm3.49,3.29,2,3.75-4.21-.1ZM28,28.11a1.6,1.6,0,1,1,1.6-1.6,1.6,1.6,0,0,1-1.6,1.6Z" fill="#fff"/></symbol><symbol viewBox="0 0 40 40" id="hike_long"><title>Long Hike (+10km)</title><rect width="40" height="40" rx="5" ry="5"/><path d="M15.76,13.32l-8-3.41v1.78l5.87,2.5-5.87,2.5v1.78l8-3.46ZM21,18.24h1.88v-12H19.09V8h1.85ZM28.86,6a3.63,3.63,0,0,0-3.69,4v4.36a3.75,3.75,0,1,0,7.37,0V10a3.64,3.64,0,0,0-3.26-4Zm1.82,8.29c0,1.68-.91,2.34-1.82,2.34S27,16,27,14.29V10.15c0-1.68.9-2.34,1.81-2.34s1.82.66,1.82,2.34Zm-12.88,7H15.53l-3.26,5.89V21.25H10.18V33.91h2.09V28l3.42,5.94H18.1L14.19,27.5Zm6.6,9.16L22.2,21.25H19.1V33.91H21V23.46L23.6,33.91h1.62l2.56-10.45V33.91h1.86V21.25h-3.1Z" fill="#fff"/></symbol><symbol viewBox="0 0 40 40" id="hike_med"><title>Medium hike (1km-10km)</title><rect width="40" height="40" rx="5" ry="5"/><path d="M15.72,16.48,9.84,14l5.89-2.5V9.81l-8,3.41v1.61l8,3.41Zm5.2,1.66H22.8V6.1H19V7.85H20.9ZM28.81,5.9a3.63,3.63,0,0,0-3.68,4V14.3a3.75,3.75,0,1,0,7.37,0V9.94a3.64,3.64,0,0,0-3.69-4Zm1.82,8.29c0,1.68-.91,2.34-1.82,2.34S27,15.86,27,14.19V10c0-1.68.9-2.34,1.81-2.34s1.84.71,1.84,2.34Zm-12.86,7H15.49L12.22,27V21.15H10.14v12.6h2.09V27.87l3.41,5.88h2.41l-3.9-6.46Zm6.6,9.16-2.23-9.16H19.06v12.6h1.86V23.35l2.64,10.4h1.62L27.75,23.3V33.75h1.86V21.15H26.52Z" fill="#fff"/></symbol><symbol viewBox="0 0 40 40" id="hike_short"><title>Short hike (less than 1km)</title><rect width="40" height="40" rx="5" ry="5"/><path d="M17.19,16.41,11.25,14l5.89-2.5V9.74l-8,3.42v1.61l8,3.41ZM25,18.08h1.88V6H23.13V7.79H25Zm-6.92,3H15.85L12.59,27V21.09H10.5V33.75h2.09v-6l3.41,6h2.41l-3.9-6.46Zm8.75,0-2.09,9.16L22.5,21.09H19.42V33.75h1.83V23.29l2.67,10.46h1.62L28.11,23.3V33.75H30V21.09Z" fill="#fff"/></symbol><symbol viewBox="0 0 40 40" id="hiking"><title>Significant hike</title><rect width="40" height="40" rx="5" ry="5"/><path d="M13.13,14.85c-.25.5,1.85,1.39,2.06,1l3-6.1c.3-.64-1.81-1.76-2.19-1Zm7.11-7.24a2.36,2.36,0,0,0,4.71,0,2.36,2.36,0,0,0-4.71,0ZM11.4,33.16l1.81,1.64,5-10.14,2,2.4.46,2.5-2.78,4.55,1.25.3s1.85-3,1.85-3l.64,3.36,2.83-.68-1.18-6.4,4.38-7.11.55.3.89-1.39L24,15.92l-1.25-4.45A2.56,2.56,0,0,0,20.6,9.85c-3.4,0-5.6,7.65-5.6,9.42a2.4,2.4,0,0,0,.55,1.64Zm8.75-13.75,1.48-2.65.68,1.17L26.46,20l-3.58,5.89Z" fill="#fff"/></symbol><symbol viewBox="0 0 40 40" id="horses"><title>Horses</title><rect width="40" height="40" rx="5" ry="5"/><path d="M19.6,7.24a1.34,1.34,0,1,0,1.34,1.34h0A1.34,1.34,0,0,0,19.6,7.24" fill="#fff"/><path d="M23.45,15.66l-.88.64-1.81-1.1.13.67a.64.64,0,0,0,.29.44l1.25.76.79-.29-.3-.33L23.6,16l.7.62a53.09,53.09,0,0,1,6.83-1.45,3.39,3.39,0,0,1,.71-.77l.19.19.37-.24v.33l-.33.92a38,38,0,0,1,1.84,4.71.44.44,0,0,1-.11.46,3.43,3.43,0,0,1-1,.78h-.25a1.85,1.85,0,0,1-.65.56.64.64,0,0,1-.59,0L28,20.13l-.76.78a3.13,3.13,0,0,0-.44.56l-.5,1.72a2.11,2.11,0,0,0-.06.56l.46,3a3.2,3.2,0,0,0,.14.39c.53,1.11,1,2.17,1.46,3.17a13.33,13.33,0,0,0,1.45,1.79c0,.14,0,.17-.14.21H28l-.21-.16a1.06,1.06,0,0,0-.72-1c-.1,0-.14-.16-.16-.3A7.89,7.89,0,0,0,25,27.13a1,1,0,0,1-.21-.49c-.07-.34.19-.39-1.25-1.87a19.34,19.34,0,0,1-3.75,5.5.77.77,0,0,1-.41.4.56.56,0,0,0-.16.24L19,32.06c0,.13,0,.15-.14.09l-1.25-1a.33.33,0,0,1,0-.25l.49-.49.21-.24.19-.37.19-.24a5.15,5.15,0,0,0,1.46-2,4.1,4.1,0,0,0,.33-.84,12.87,12.87,0,0,1,.34-2,13.26,13.26,0,0,1-5.76-.88,10.21,10.21,0,0,0,.72,5.69,3.93,3.93,0,0,0,.82,1.41,5,5,0,0,1,1,1.06c.08.11,0,.17-.09.26H15.7a.66.66,0,0,0-.16-.55l-.54-.3v-.14a7.69,7.69,0,0,0-1.41-3.06l-.3-.35a1.75,1.75,0,0,1-.21-.92v-.62a4.1,4.1,0,0,0-.72-1.74L9.46,27.16a2.56,2.56,0,0,0-.6,1.25l-.34,1.95a.64.64,0,0,1-.19.44,3.75,3.75,0,0,0-.44.92l-.22.21a12.65,12.65,0,0,1-1.14.89l-.29-1.36.6-.35a13.12,13.12,0,0,0,.79-4.46l.22-.6a8.06,8.06,0,0,0,1.36-2.13L9,23.6a2.56,2.56,0,0,1-2.25,1.52,7.36,7.36,0,0,0,.85-3.87Q7.16,17.16,12.14,17c1.68.1,3.39.36,4.79-.54-.1-2.57,0-5,1.43-6.84a2.75,2.75,0,0,0,1.38.46l.6,2.95a.51.51,0,0,0,.19.38l2.94,2.24m8.75,5.57c-.16,0-.25.14-.4.17a1,1,0,0,1-.9,0,24.21,24.21,0,0,1-2.5-1.53l-.25.13,3.13,1.79a.51.51,0,0,0,.49,0,.47.47,0,0,0,.37-.49m-2.14-2a2.26,2.26,0,0,0-1.38.48q.91.66,1.86,1.25c.45.23.9.43,1.25.19a.34.34,0,0,0,.19-.25l-.47-.66a3.23,3.23,0,0,1-1.51-1" fill="#fff"/></symbol><symbol viewBox="0 0 40 40" id="hunting"><title>Hunting</title><rect width="40" height="40" rx="5" ry="5"/><path d="M32.66,19h-2.2A10.52,10.52,0,0,0,21,9.62V7.43a1,1,0,1,0-2.05,0V9.64a10.52,10.52,0,0,0-9.42,9.42H7.38a1,1,0,0,0,0,2h2.2A10.53,10.53,0,0,0,19,30.54v2.2a1,1,0,0,0,2.05,0h0V30.53a10.53,10.53,0,0,0,9.43-9.42h2.2a1,1,0,0,0,0-2.05Zm-7.79,2h3.54A8.52,8.52,0,0,1,21,28.47V24.6H19v3.88a8.52,8.52,0,0,1-7.38-7.37H15.5V19H11.63A8.52,8.52,0,0,1,19,11.68v3.88h2V11.69a8.52,8.52,0,0,1,7.37,7.37H24.55v2Z" fill="#fff"/></symbol><symbol viewBox="0 0 40 40" id="jeeps"><title>Off-road vehicles</title><rect width="40" height="40" rx="5" ry="5"/><path d="M26.78,17.5l-2.85-4.09L23,14,24.87,17,23.1,19.69c-.35.57-.43.76-1.25.76h-3.2c-.8,0-.89,0-1.15-.51l-1.4-2.3H5.3v6.75H6.92c.4-2.5,1.83-4.16,4.46-4.12A4,4,0,0,1,15.67,24V24H25.75l1.78-3.75h7V17.41Zm-15.43,4a3.13,3.13,0,1,0,3.13,3.13A3.12,3.12,0,0,0,11.35,21.48Zm0,4.64a1.5,1.5,0,1,1,1.5-1.5A1.5,1.5,0,0,1,11.35,26.11Zm19.42-4.64A3.13,3.13,0,1,0,33.9,24.6,3.12,3.12,0,0,0,30.77,21.48Zm0,4.64a1.5,1.5,0,1,1,1.5-1.5,1.5,1.5,0,0,1-1.5,1.5h0Z" fill="#fff"/></symbol><symbol viewBox="0 0 40 40" id="kids"><title>Recommended for kids</title><rect width="40" height="40" rx="5" ry="5"/><path d="M8.5,19.46s2.05-6.25,2.61-8A2.69,2.69,0,0,1,13.75,9.6l2.66.17a2.39,2.39,0,0,1,2.2,1.55L22,19.16l-1,.33-3.21-5.25-.45,5.43,2,15.34H17.81l-3.3-11.69L10,35H8.58l3.55-16.5.13-4.33L9.41,19.8Z" fill="#fff"/><circle cx="15.49" cy="6.8" r="2.37" fill="#fff"/><polygon points="22.52 20.11 24.25 21.96 27.56 22.14 31.56 26.7 30.75 27.3 28.34 25.11 27.82 27.48 30.36 34.71 29.41 35.14 26.52 30.06 23.99 35.39 22.82 35.39 24.89 27 24.98 23.86 23.39 23.26 21.57 20.38 22.52 20.11" fill="#fff"/><circle cx="27.15" cy="20.09" r="1.74" fill="#fff"/></symbol><symbol viewBox="0 0 40 40" id="landf"><title>Lost And Found Tour</title><path d="M35.22,3.89a1.65,1.65,0,0,1,.82,1L40,17.7V5a5,5,0,0,0-5-5H5A5,5,0,0,0,0,5v9.27L33.94,3.77A1.65,1.65,0,0,1,35.22,3.89Z"/><path d="M35.08,5.17a.67.67,0,0,0-.84-.44L0,15.32v3.26L5.15,35.22a.67.67,0,0,0,.84.44L40,25.14V21.08Z"/><path d="M5.79,36.69a1.67,1.67,0,0,1-1.6-1.18L0,22V35a5,5,0,0,0,5,5H35a5,5,0,0,0,5-5V26.19L6.28,36.62A1.65,1.65,0,0,1,5.79,36.69Z"/><path d="M34.75,4.78a.66.66,0,0,1,.33.39l4.84,15.64V17.43L36,4.88a1.67,1.67,0,0,0-2.09-1.1L0,14.27v1L34.24,4.73A.66.66,0,0,1,34.75,4.78Z" fill="#fff"/><path d="M39.92,25.17,6,35.66a.67.67,0,0,1-.84-.44L0,18.58V22L4.19,35.52a1.67,1.67,0,0,0,1.6,1.18,1.65,1.65,0,0,0,.49-.07L39.92,26.21Z" fill="#fff"/><path d="M29.89,10.55a3.66,3.66,0,0,1,1.3.37,4,4,0,0,1,.9.62,5.24,5.24,0,0,1,.81.91,1,1,0,0,0,.36.34.56.56,0,0,0,.41,0,.58.58,0,0,0,.4-.33,1,1,0,0,0,0-.62L32.69,7.7,27.94,9.28l.46,1.38A5.28,5.28,0,0,1,29.89,10.55Zm2.62,3.51a1.89,1.89,0,0,0-.3-.67.55.55,0,0,0-.61-.14.58.58,0,0,0-.39.32,1.45,1.45,0,0,0,0,.7,2.57,2.57,0,0,1-.14,1.17,3.17,3.17,0,0,1-.78,1l.44,1.37a1.82,1.82,0,0,1,1.17.27,3.36,3.36,0,0,1,1,1.06,1.32,1.32,0,0,0,.43.47.57.57,0,0,0,.48,0,.5.5,0,0,0,.39-.36,1.74,1.74,0,0,0-.13-.81Zm.12,10.08H32a.46.46,0,0,1-.22-.09,1,1,0,0,1-.4-.61L26.92,9.62l-5.26,1.72-.3.11a1.17,1.17,0,0,0-.61.37.55.55,0,0,0-.08.53.66.66,0,0,0,.68.48h.5a.39.39,0,0,1,.18.09,1.06,1.06,0,0,1,.34.55l3.86,11.78a1.06,1.06,0,0,1,0,.64.39.39,0,0,1-.09.18l-.37.35a.66.66,0,0,0-.27.8.55.55,0,0,0,.37.37,1.17,1.17,0,0,0,.7,0l.3-.11,5.26-1.72.4-.13a1.53,1.53,0,0,0,.7-.39.6.6,0,0,0,.14-.6.66.66,0,0,0-.74-.51ZM19.9,16a1,1,0,0,1,.26.42,1.17,1.17,0,0,1,0,.68l.55.53A4.12,4.12,0,0,0,21,16.5a2.25,2.25,0,0,0-.12-.94,1.09,1.09,0,0,0-.3-.5.4.4,0,0,0-.41-.08,1.17,1.17,0,0,0-.5.3.37.37,0,0,0-.12.37.43.43,0,0,0,.13.18Zm2.88,4a.6.6,0,0,0-.23-.08,1.46,1.46,0,0,1-.34-.12,1.37,1.37,0,0,1-.29-.23l-5.17-4.94a1.42,1.42,0,0,1-.37-.57.66.66,0,0,1,0-.41.67.67,0,0,1,.25-.33l-.22-.82-.5.12a2.83,2.83,0,0,0-1.17.73,2.54,2.54,0,0,0-.67,1.17,2.09,2.09,0,0,0,0,1.17,4,4,0,0,0,.39.81,3.19,3.19,0,0,0,.49.66l4.8,4.43,2.81-.91a.63.63,0,0,0,.33-.21.33.33,0,0,0,0-.3.32.32,0,0,0,0-.15Zm-5-6.62a1.05,1.05,0,0,1,.3.49,1.08,1.08,0,0,1,0,.49,1.84,1.84,0,0,1-.22.57l.51.51a2.19,2.19,0,0,0,.5-.75,2,2,0,0,0,0-1.17,1.68,1.68,0,0,0-.4-.66,1.85,1.85,0,0,0-.64-.43,1.44,1.44,0,0,0-.39-.08,1.94,1.94,0,0,0-.43,0l.25.75a1.25,1.25,0,0,1,.55.27Zm-.54,9.23a3.42,3.42,0,0,0,.87-.43,3.66,3.66,0,0,0,.74-.67l-.55-.5h-.2a.58.58,0,0,1-.35,0,.77.77,0,0,1-.23-.14l-1.91-1.82a1.26,1.26,0,0,1-.33-.41.74.74,0,0,1,0-.43l-.5-.51a3.6,3.6,0,0,0-1,1.17,2.6,2.6,0,0,0-.3,2.15,2.49,2.49,0,0,0,1.08,1.35,3,3,0,0,0,2.71.26Zm1.08,1.53a.56.56,0,0,0-.6-.12.61.61,0,0,0-.41.37,3.18,3.18,0,0,0-.07,1,7.49,7.49,0,0,1-.19,1.8,4.27,4.27,0,0,1-.57,1.42,2.61,2.61,0,0,1-.54.61,5.73,5.73,0,0,1-.87.55l.44,1.37,4.68-1.52-1.63-5a1.36,1.36,0,0,0-.22-.51ZM9.81,16.38a.58.58,0,0,1,.14-.21l.51-.28a.68.68,0,0,0,.36-.87.62.62,0,0,0-.48-.41,1.59,1.59,0,0,0-.82.11l-.42.14L3.66,16.59l-.32.11a1.24,1.24,0,0,0-.62.39.56.56,0,0,0-.08.55.68.68,0,0,0,.7.5h.53a.4.4,0,0,1,.19.09,1.1,1.1,0,0,1,.35.57l4,12.29a1.1,1.1,0,0,1,0,.67.4.4,0,0,1-.09.19l-.36.32a.68.68,0,0,0-.27.82.56.56,0,0,0,.4.4,1.24,1.24,0,0,0,.74,0l.32-.11,5.44-1.78L9.88,17.22A1.17,1.17,0,0,1,9.81,16.38Z" fill="#fff"/></symbol><symbol viewBox="0 0 40 40" id="mine"><title>Abandoned mines</title><rect width="40" height="40" rx="5" ry="5"/><path d="M8.31,31.25,21.68,18l.37.19,1.76-1.75,4.26,4.2,2.5-2.57-7.2-6.9a16.61,16.61,0,0,0-3.75-2.65,19.62,19.62,0,0,0-3.47-1.42c-.54-.16-1.1-.31-1.65-.43l-1.12-.2-.13.25a23.52,23.52,0,0,1,2.36.89A17.72,17.72,0,0,1,18.23,9c.38.26.75.54,1.11.81a11.75,11.75,0,0,1,1.37,1.25,5.74,5.74,0,0,1,1.08,1.19,1,1,0,0,1,0,.45.65.65,0,0,1-.09.29,3.1,3.1,0,0,1-.29.4l-2.18,2.2.25.44L6.25,29.24Z" fill="#fff"/><path d="M22,31.69l1,.81a.9.9,0,0,1,.39-.17,1.05,1.05,0,0,1,.53,0,.78.78,0,0,1,.41.27l.19.31.19.06a.31.31,0,0,1,.11-.09.6.6,0,0,1,.2,0l.15.09.1.1.88-.5,1.5.44.11-.15.26-.29.34-.23.29-.15.69-1.82-.57-2.15L25.68,26.6,24,27.73a3.52,3.52,0,0,1,0,.63,5,5,0,0,1,0,.6,2.39,2.39,0,0,1-.1.4.16.16,0,0,1,0,.19.18.18,0,0,1-.13.06h-.62l-.37.4h-.37Z" fill="#fff"/><path d="M30.27,31.75l.06,1.06,1.25.75L33,33.44v-.5a.81.81,0,0,1,.06-.31,1.07,1.07,0,0,1,.31-.37l.94-.62-.81-1.44-1.89-.5-.37.44a1,1,0,0,1,.11.3.61.61,0,0,1-.37.69Z" fill="#fff"/><path d="M20.86,31.81v-.19a.33.33,0,0,1-.16,0,.58.58,0,0,1-.21-.29.41.41,0,0,1,0-.23l-.94-.25a1.63,1.63,0,0,0-.24.29,1.25,1.25,0,0,0-.19.49,1.83,1.83,0,0,0,0,.35l1.13.5.13-.21a.65.65,0,0,1,.24-.25Z" fill="#fff"/></symbol><symbol viewBox="0 0 40 40" id="motorcycles"><title>Motorcycles</title><rect width="40" height="40" rx="5" ry="5"/><path d="M24.9,19.87h0a1,1,0,1,0-1.42-1.25L22,20.3a1.93,1.93,0,0,0-3,.45H17.17a5.78,5.78,0,0,0-1.88-2.59h8.59A2.4,2.4,0,0,0,26.18,15h.46l2.24,6.55a1.92,1.92,0,1,0,1.81-.62L27.9,12.75h0a1.92,1.92,0,0,0-1.75-1.25H22.31a.51.51,0,1,0,0,1h3a1,1,0,0,1,.79.94L17.5,15.8H8.75a.91.91,0,0,0-.86.82v1.74A5.74,5.74,0,0,0,6,22.5H4.75a.54.54,0,1,0,0,1.08H6.08a5.76,5.76,0,0,0,11.36,0h3.25A2,2,0,0,0,22,23.05ZM11.76,26.5A3.84,3.84,0,0,1,8,23.59h2.06a1.91,1.91,0,0,0,3.35,0h2.05A3.84,3.84,0,0,1,11.76,26.5Zm3.75-4.8h-2.1a1.92,1.92,0,0,0-3.56.8H7.93a3.84,3.84,0,0,1,7.5-.8ZM30.37,17h-.49l.65,1.9a3.84,3.84,0,1,1-2.65.91l-.65-1.91A5.76,5.76,0,1,0,30.39,17Zm-.59-3.16H31v-2.4H29.79a1.25,1.25,0,1,0,0,2.4Z" fill="#fff"/></symbol><symbol viewBox="0 0 40 40" id="night"><title>Recommended at night</title><rect width="40" height="40" rx="5" ry="5"/><polygon points="11.14 7.09 12.35 9.53 15.04 9.93 13.09 11.82 13.55 14.5 11.14 13.24 8.72 14.5 9.19 11.82 7.24 9.93 9.94 9.53 11.14 7.09" fill="#fff"/><polygon points="29.63 26.71 30.82 29.15 33.52 29.55 31.57 31.45 32.04 34.14 29.63 32.86 27.21 34.14 27.68 31.45 25.73 29.55 28.41 29.15 29.63 26.71" fill="#fff"/><path d="M21.62,5.94a11.92,11.92,0,0,1-15,16.94,11.92,11.92,0,1,0,15-16.94Z" fill="#fff"/></symbol><symbol viewBox="0 0 40 40" id="nightcache"><title>Night Cache</title><rect width="40" height="40" rx="5" ry="5"/><path d="M16.6,18.3A6.42,6.42,0,0,0,21,16.53a6,6,0,0,1-4-11.1h-.4a6.44,6.44,0,1,0,0,12.89ZM5.91,10.41H7.07V9.25H5.91Zm-1.16,7H5.91V16.25H4.75Zm17.5-7H21.09v1.16h1.16Zm2.33-4.66H23.41V6.91h1.16Zm5.84,4.66H29.25v1.16h1.16Zm-2.34,4.66H26.91v1.18h1.16Zm5.84-7V9.25h1.16V8.08Zm-.06,13.31h-10l-13.25,3s-.33.07-.33.63v1.25a.51.51,0,0,0,.46.56h.39V31.9a2.5,2.5,0,0,0,2.25,2.57H21a2,2,0,0,0,1-.3h0l9.51-3.75c2-.88,2.06-1.59,2-3V23.34l.25-.1a.38.38,0,0,0,.25-.36V21.62A.33.33,0,0,0,33.85,21.39ZM22.13,32a1.25,1.25,0,0,1-1.07,1.41H13.39A1.25,1.25,0,0,1,12.28,32V26.84h9.84Zm9-2.5-7.88,3a3,3,0,0,0,0-.51V26.72c1.66-.47,6.78-2.16,9.2-3V27.6c.07,1.15-.09,1.34-1.33,1.88Z" fill="#fff"/></symbol><symbol viewBox="0 0 40 40" id="onehour"><title>Takes less than one hour</title><path d="M5 0h30c2.8 0 5 2.2 5 5v30c0 2.8-2.2 5-5 5H5c-2.8 0-5-2.2-5-5V5c0-2.8 2.2-5 5-5z"/><path fill="#FFF" d="M20.1 32.7c7 0 12.7-5.7 12.7-12.7 0-7-5.7-12.7-12.7-12.7-7 0-12.6 5.7-12.7 12.7 0 7 5.7 12.7 12.7 12.7zM9.1 20c0-6.1 4.9-11 11-11s11 4.9 11 11-4.9 11-11 11-11-4.9-11-11z"/><path fill="#FFF" d="M19.3 10.8h1.6v8.1h-1.6z"/><path fill="#FFF" d="M19.928 19.68l3.252-5.16 1.353.852-3.25 5.16z"/><circle fill="#FFF" cx="20.2" cy="20.1" r="2.1"/></symbol><symbol viewBox="0 0 40 40" id="parking"><title>Parking available</title><rect width="40" height="40" rx="5" ry="5"/><path d="M15.5,33.09H10.39V6.88H22.93c4.38.6,7.5,5.36,7,9.91A9,9,0,0,1,22,24.4c-1.91.1-3.84,0-5.76,0H15.5Zm.13-13.45h6.16a2.09,2.09,0,0,0,.39-.08A3.75,3.75,0,0,0,25,15.16a3.9,3.9,0,0,0-3.75-3.41H16a1.46,1.46,0,0,0-.31.08Z" fill="#fff"/></symbol><symbol viewBox="0 0 40 40" id="parkngrab"><title>Park and Grab</title><rect width="40" height="40" rx="5" ry="5"/><path d="M33.2,20.21H22.63L8.75,23.5s-.34.09-.34.7v1.45c0,.68.56.63.56.63h.28V32a2.66,2.66,0,0,0,2.38,2.86h8a2.05,2.05,0,0,0,1.09-.33h0l10-4.14c2.1-1,2.17-1.76,2.14-3.31V22.39l.26-.11a.41.41,0,0,0,.26-.4V20.53A.36.36,0,0,0,33.2,20.21ZM11.63,33.55c-.64,0-1.16-.71-1.16-1.58V26.25H20.84V31.9c0,.88-.53,1.58-1.16,1.58ZM31.71,27.1c0,1.25-.11,1.5-1.41,2.1L22,32.5a3.49,3.49,0,0,0,0-.56V26.15c1.7-.57,7-2.4,9.65-3.32v3.65a5.93,5.93,0,0,1,.05.64Z" fill="#fff"/><path d="M14.41,9.62a2.36,2.36,0,0,0-1.14-.21h-.91v2.5h1a2.26,2.26,0,0,0,1.09-.21,1.15,1.15,0,0,0,.56-1A1.09,1.09,0,0,0,14.41,9.62Z" fill="#fff"/><path d="M13,5.39a6.37,6.37,0,1,0,6.39,6.37A6.37,6.37,0,0,0,13,5.39Zm2.71,7.36a3.21,3.21,0,0,1-2.34.66h-1v2.84H10.69V7.94h2.5a3.6,3.6,0,0,1,2.5.58,2.75,2.75,0,0,1,1,2.13,2.83,2.83,0,0,1-.91,2.1Z" fill="#fff"/></symbol><symbol viewBox="0 0 40 40" id="partnership"><title>Partnership Cache</title><rect width="40" height="40" rx="5" ry="5"/><path d="M17.73,17.7a3.09,3.09,0,0,0,2.05,1,.7.7,0,0,0,.5-.16c.51-.51.65-3.2.65-3.2a8.75,8.75,0,0,1,2.5-.53,1.58,1.58,0,0,1,.94.23c.88.65,8.38,8,8.38,8l3.86-3.2.21-12L36.25,8l-8.61,4.36L23.75,10.2l-2.5.14L18,13.48S17.44,17.19,17.73,17.7Z" fill="#fff"/><path d="M18.62,28.81a2.41,2.41,0,0,0-.56.06v.23c0,.06-.26.65-1.5,1.48l-.16.17c.16.69,1.33,1.6,1.33,1.6s1.75-1,1.91-1.39a2.41,2.41,0,0,0-.11-1.7A.84.84,0,0,0,18.62,28.81Z" fill="#fff"/><path d="M12.5,23.42a3.28,3.28,0,0,0-.76.1L9.49,26c.21.91,1.76,2.11,1.76,2.11s.84-.45,1.55-.94L13.86,26a3.37,3.37,0,0,0-.21-2A1.11,1.11,0,0,0,12.5,23.42Z" fill="#fff"/><path d="M15.79,26.25a2.88,2.88,0,0,0-.67.09l-.28.3v.11c-.08.19-.24.61-1.31,1.38l-.36.39c.19.8,1.55,1.86,1.55,1.86s.53-.29,1.06-.64L17,28.35a3.15,3.15,0,0,0-.23-1.58A1,1,0,0,0,15.79,26.25Z" fill="#fff"/><path d="M6.25,23.4a3.21,3.21,0,0,0,0,1.91.78.78,0,0,0,.82.53,2,2,0,0,0,.5-.07l1.73-2a4.71,4.71,0,0,0-1.25-1.82S6.44,22.93,6.25,23.4Z" fill="#fff"/><path d="M31.65,23.59c-2.9-2.79-7.26-7.06-7.9-7.63a1.14,1.14,0,0,0-.27,0,5.79,5.79,0,0,0-1.39.23,5.5,5.5,0,0,1-.94,3.15,1.81,1.81,0,0,1-1.32.5,4.08,4.08,0,0,1-3.06-1.55c-.18-.3-.5-.86.15-5V12.9l.29-.28,1.55-1.5A6.5,6.5,0,0,0,17,10.19a52.15,52.15,0,0,0-5,2L3.66,7.65l.09,12.68,2.5,1.49a12.64,12.64,0,0,1,1.25-.9l.77-.47.65.64a5.94,5.94,0,0,1,1.45,2.15l.44-.49.23-.25.33-.09a4.39,4.39,0,0,1,1.07-.14h0a2.17,2.17,0,0,1,2.22,1.34A5.24,5.24,0,0,1,15,25.11a3.92,3.92,0,0,1,.77-.07h0a2.05,2.05,0,0,1,2.09,1.25,4.58,4.58,0,0,1,.3,1.39h.45a1.91,1.91,0,0,1,1.95,1.25,3.75,3.75,0,0,1,.25,2,18.86,18.86,0,0,0,1.8,1C23.13,32,24,30.75,24,30.75h0a29.81,29.81,0,0,1-2.77-2.5.44.44,0,0,1,.64-.6h0a30.45,30.45,0,0,0,3.41,3A2.35,2.35,0,0,0,27,29a31.14,31.14,0,0,1-3.41-3,.44.44,0,0,1,.64-.6,31.81,31.81,0,0,0,4.07,3.42A1.64,1.64,0,0,0,30,26.82a33.2,33.2,0,0,1-4.35-3.75.44.44,0,0,1,.6-.57,33,33,0,0,0,4.49,3.75C31.55,26.15,32.5,25.55,31.65,23.59Z" fill="#fff"/></symbol><symbol viewBox="0 0 40 40" id="phone"><title>Telephone nearby</title><rect width="40" height="40" rx="5" ry="5"/><path d="M15.09,5.15a8.45,8.45,0,0,0-1.45,1,6.55,6.55,0,0,0-1.32,1.51,8.14,8.14,0,0,0-.72,1.49l1.25,6.25A35.51,35.51,0,0,0,15,22.14a25.9,25.9,0,0,0,1.25,2.5c.58,1.08,1.25,2.14,1.85,3.16a8.65,8.65,0,0,0,.65,1l5.19,6a11.25,11.25,0,0,0,1.69.11,9.49,9.49,0,0,0,2-.24,10.52,10.52,0,0,0,1.56-.5l-5.4-6.87a2.34,2.34,0,0,1-1.06,0c-.29-.06-.85-.27-1-.57l-5-10.34a1.93,1.93,0,0,1,.13-1.73,2.5,2.5,0,0,1,.7-.81l-2.4-8.75" fill="#fff"/><path d="M31,32.79a.71.71,0,0,0,.2-.46.63.63,0,0,0-.06-.37,1.54,1.54,0,0,0-.19-.29L26.25,25.9c-.14-.17-.19-.26-.44-.29a.56.56,0,0,0-.44.11l-1.08,1,5.58,7.06,1.15-.9" fill="#fff"/><path d="M18.25,13.47l1.25-.3.21-.08a.46.46,0,0,0,.25-.19.65.65,0,0,0,0-.53L18.2,5.11a.56.56,0,0,0-.16-.3,1,1,0,0,0-.29-.19.75.75,0,0,0-.51,0L16,5l2.31,8.52" fill="#fff"/></symbol><symbol viewBox="0 0 40 40" id="picnic"><title>Picnic tables nearby</title><rect width="40" height="40" rx="5" ry="5"/><path d="M10.72,12.75V10.19H29.38v2.56H24.66l2.84,7h6.94v2.57H28.51l3.28,8.09H28.61l-3.27-8.09H14.72l-3.26,8.08H8.29l3.26-8.09H5.69V19.7h6.9l2.8-6.94Zm5,6.94h8.51l-2.77-6.94h-2.9Z" fill="#fff"/></symbol><symbol viewBox="0 0 40 40" id="poisonoak"><title>Poison plants</title><rect width="40" height="40" rx="5" ry="5"/><path d="M30.7,13.88c1.09-2.19-.94-10.39-.94-9.91s-2.58,2.29-3.51,2S21.79,7.5,21.79,7.5l-.54-.74L19.3,9.26l-.86.15.46,1.64L17.65,11c-1.16,3.36,2.19,7.78,2.19,7.78l.24.46s.55.39,4.76.31S31.32,14,31.32,14ZM20.49,18.39S23.44,8.87,28,7.55C28,7.5,26,10.19,20.49,18.39Z" fill="#fff"/><path d="M26.46,30.25c1.84.07,6.84-3.86,6.52-3.75s-2.35-1.06-2.5-1.79S28,22.14,28,22.14l.36-.61L26,21l-.37-.54-1,.82-.34-.89c-2.67.24-4.64,3.9-4.64,3.9l-.25.3s-.1.5,1.25,3.36,5.81,2.74,5.81,2.74ZM20.3,24.77s8-1.32,10,2.19a35.64,35.64,0,0,0-10-2.19Z" fill="#fff"/><path d="M6.95,19.47s1.7,4.11,4.88,4.18,3.59-.24,3.59-.24l.18-.35s2.5-3.29,1.65-5.81H16.3L16.65,16,16,15.89,14.54,14l-.41.59s-2.64-1.35-3.35-1.17A4,4,0,0,1,8.13,12c0-.35-1.53,5.81-.7,7.5Zm2.5-4.81c3.46,1,5.51,7.77,5.51,7.77-5-6.19-5.55-7.77-5.55-7.77Z" fill="#fff"/><path d="M20.46,18.84s-8.05,7.1-6.71,17.1h1.32s-1.41-8.35,5.78-17.19Z" fill="#fff"/><path d="M15.23,22.9s1.56.55,1.49,1.71l-.7.78s.24-2.1-1.25-2.23S15.39,23,15.23,22.9Z" fill="#fff"/><path d="M16.65,24.16a2.35,2.35,0,0,1,3.31.28l.1.13c1.76,1.9.11.46.11.46s-2.26-1.6-3.34.2S16.65,24.16,16.65,24.16Z" fill="#fff"/></symbol><symbol viewBox="0 0 40 40" id="public"><title>Public transportation</title><rect width="40" height="40" rx="5" ry="5"/><path d="M20.1,5.64A25.07,25.07,0,0,1,27.9,7c1.54.64,2.5,1.25,2.87,2.88l1.15,8.84V30.94H30v1.91a1.71,1.71,0,0,1-3.41,0V31H13.67v1.91a1.71,1.71,0,0,1-3.41,0V31h-2V18.75L9.44,9.9C9.76,8.3,10.77,7.66,12.31,7a25.09,25.09,0,0,1,7.8-1.4m8.13,21.5a1.64,1.64,0,1,0-1.64-1.64h0A1.64,1.64,0,0,0,28.24,27.13Zm0-1.64H13.6A1.64,1.64,0,1,0,12,27.13h0a1.64,1.64,0,0,0,1.64-1.64H28.24ZM25,9.31a.72.72,0,1,0,0-1.44H15.24a.72.72,0,0,0,0,1.44ZM12.24,10.76a.94.94,0,0,0-.92.76l-.94,7a.93.93,0,0,0,0,.25.94.94,0,0,0,.94.94H28.94a.94.94,0,0,0,.94-.94.93.93,0,0,0,0-.25l-.94-7a.94.94,0,0,0-.92-.76Z" fill="#fff"/></symbol><symbol viewBox="0 0 40 40" id="quads"><title>Quads</title><rect width="40" height="40" rx="5" ry="5"/><path d="M27.5,15.56v-3.3h-.31a1.65,1.65,0,0,0,0,3.3Z" fill="#fff"/><path d="M25,14.81l-1.44-2.88a1.89,1.89,0,0,0-1.66-1H18.56a.56.56,0,1,0,0,1.12h3.35a.79.79,0,0,1,.69.44l.92,1.84Z" fill="#fff"/><path d="M31.66,17.9a1,1,0,0,1,.76,1H30a5.81,5.81,0,0,0-5.81,5.81H16.25a5.81,5.81,0,0,0-4-5.53l-4.4-1.44.72-1.1A1.45,1.45,0,0,1,9.83,16h.31l9.75,3a1.62,1.62,0,0,0,1.43-.56l2.21-3.2Z" fill="#fff"/><path d="M25.14,25.72a4,4,0,1,1,4,4h0A4,4,0,0,1,25.14,25.72Zm4,1.48a1.48,1.48,0,1,0-1.48-1.48A1.48,1.48,0,0,0,29.1,27.2Z" fill="#fff"/><path d="M6.47,25.3a4.36,4.36,0,1,1,4.36,4.36h0A4.36,4.36,0,0,1,6.47,25.3Zm4.36,1.62A1.63,1.63,0,1,0,9.21,25.3h0a1.63,1.63,0,0,0,1.61,1.64h0Z" fill="#fff"/></symbol><symbol viewBox="0 0 40 40" id="rappelling"><title>Climbing gear</title><rect width="40" height="40" rx="5" ry="5"/><polygon points="22.16 35.39 33.34 35.39 33.34 4.64 20.45 4.64 20.16 7.06 24.15 9.41 23.94 17.52 26.5 18.88 26.57 21.65 25.79 22.09 22.24 27.41 23.15 29.63 20.52 33.54 22.16 35.39" fill="#fff"/><path d="M17.5,9a1.36,1.36,0,0,1-.45,0,1,1,0,0,1-.26-.09.94.94,0,0,1-.54-.15c-.1-.09-.19-.21-.3-.3A2.61,2.61,0,0,0,14,7.81,2.66,2.66,0,0,0,11.8,9.55a2.58,2.58,0,0,0,0,1.5l5.7-2Z" fill="#fff"/><path d="M16.33,9.78l-4.41,1.56a2.42,2.42,0,0,0,2.94,1.77l.15,0a2.34,2.34,0,0,0,1.54-2A2.4,2.4,0,0,0,16.33,9.78Z" fill="#fff"/><path d="M23.65,24.57l.79-1.25L18.81,19l-5.26,2.26.3-.56c.26-.53.55-1.05.77-1.6s.58-1.45.85-2.17l3.35-2.06L20.08,10l-.58-.36.08-4.91h-.29l-.15,4.84-1.49,3.75L14.8,14.75l-2.2-1.5a1.25,1.25,0,0,0-.71-.21,1.06,1.06,0,0,0-.71.15L6.55,16.94a.44.44,0,0,0-.12.19.39.39,0,0,0,0,.18.25.25,0,0,0,0,.09.31.31,0,0,0,.07.11l2.85,3.88.07,3.13a.72.72,0,0,0,.2.45,4.55,4.55,0,0,0,.72.63l.08,9.75.43-.07V25.64c.65.35,1.31.68,2,1l1.43.63c1,.46,2,.89,3.06,1.25l3.75,3.35.79-1.25-2.78-4L15.6,24.13l3.15-1.9ZM9.7,19.31,8.45,17.6l1.78-.92Z" fill="#fff"/></symbol><symbol viewBox="0 0 40 40" id="restrooms"><title>Public restrooms nearby</title><rect width="40" height="40" rx="5" ry="5"/><path d="M34.25,11.5V34.45H21.59V6ZM27.75,10a2.07,2.07,0,1,0,2.07,2.07h0A2.08,2.08,0,0,0,27.75,10Zm-1.94,4.62a2.5,2.5,0,0,0-2.5,2.5v5.79a.79.79,0,1,0,1.59,0h0V17.64h.53V32.5a1,1,0,0,0,.45.74,1.1,1.1,0,0,0,1.12.07,1,1,0,0,0,.5-.81V23.84H28V32.5a1,1,0,0,0,.54.81,1.1,1.1,0,0,0,1.12-.07,1,1,0,0,0,.45-.74V17.64h.53V23a.79.79,0,0,0,1.59,0V17.2a2.5,2.5,0,0,0-2.5-2.5Z" fill="#fff"/><path d="M18.36,34.45V6L5.82,11.38V34.45ZM11.95,25.7v6.8a.86.86,0,0,1-.86.85.85.85,0,0,1-.86-.84h0V25.75H8l2.5-8.51H10.1l-1.56,5A.82.82,0,1,1,7,21.75H7L8.84,16a1.93,1.93,0,0,1,1.71-1.39h3.2A1.93,1.93,0,0,1,15.46,16l1.86,5.77a.82.82,0,1,1-1.56.49h0l-1.56-5h-.4l2.5,8.51H14.13V32.5a.85.85,0,0,1-.85.85h0a.86.86,0,0,1-.86-.85V25.75ZM14,12.3a1.85,1.85,0,1,1-1.85-1.85h0A1.85,1.85,0,0,1,14,12.3Z" fill="#fff"/></symbol><symbol viewBox="0 0 40 40" id="rv"><title>Truck Driver/RV</title><rect width="40" height="40" rx="5" ry="5"/><path d="M17.17,27.11A2.83,2.83,0,1,0,20,24.29a2.83,2.83,0,0,0-2.83,2.83Zm1.46,0A1.36,1.36,0,1,1,20,28.48a1.36,1.36,0,0,1-1.36-1.36Z" fill="#fff"/><path d="M5.33,26.05c0,.65.39,1.08,1.32,1h9.6c.38-1.94,1.25-3.48,3.89-3.55A3.6,3.6,0,0,1,23.75,27h12.5v-1H32.77v-13c0-2.85-7.77-2.75-13-2.85s-14.46,0-14.47,2.5C5.3,16.33,5.33,21.61,5.33,26.05Zm19.09-11.8h5.31v4.82H24.41Zm-15.66,0H19.24v4.82H8.75Z" fill="#fff"/><path d="M33.66,28.75a1,1,0,1,1,1,1,1,1,0,0,1-1-1" fill="#fff"/></symbol><symbol viewBox="0 0 40 40" id="s-tool"><title>Special Tool Required</title><rect width="40" height="40" rx="5" ry="5"/><path d="M11,20.53a1.51,1.51,0,0,1-2,.83H9c-1.51-.46,2.24-5.74,2.24-5.74L7.5,15.49l-.31,8.6,4.06-.34Zm21.25,3.64.19-6.87S31,13.54,30.16,13.22s-1.94,2.07-2,3.75l1.78.44c.9.6-.11,4-.11,4a1.67,1.67,0,0,1-2-.44,13.88,13.88,0,0,0-1,2.5ZM25.72,23.1,27.36,20a57.79,57.79,0,0,0-5.68-8.2,6.72,6.72,0,0,0-4.36-2.31s-.24,3.34.72,4.91,7.64,8.69,7.64,8.69Zm-8.55-2.35a6.78,6.78,0,0,0,.6-3.52,5.92,5.92,0,0,0-3.6,1.66c-1.86,1.66-2,2.5-2,2.5l.4,2.5s3.75-2,4.55-3.15Zm12,4.15L10.6,24.75c-2.12,0-3.75,1.25-3.75,2.76s1.9,2.8,4.05,2.81l18.53.14c2.13,0,3.75-1.25,3.75-2.76s-1.93-2.8-4.05-2.81Z" fill="#fff"/></symbol><symbol viewBox="0 0 40 40" id="scenic"><title>Scenic view</title><rect width="40" height="40" rx="5" ry="5"/><rect x="12.89" y="7.5" width="4.84" height="3.46" fill="#fff"/><path d="M23.18,22.43a.83.83,0,0,1-.82-.82V12h7.3l3.07,13v6.6a.81.81,0,0,1-.8.8H24.8a.81.81,0,0,1-.8-.8V22.41h-.76" fill="#fff"/><path d="M16.88,22.5a.83.83,0,0,0,.82-.82V12.06H10.4l-3.07,13v6.6a.8.8,0,0,0,.8.8h7.12a.81.81,0,0,0,.8-.8V22.5h.76" fill="#fff"/><rect x="18.78" y="12.06" width="2.5" height="8.86" fill="#fff"/><rect x="22.35" y="7.5" width="4.84" height="3.46" fill="#fff"/></symbol><symbol viewBox="0 0 40 40" id="scuba"><title>Scuba gear</title><path d="M5 0h30c2.8 0 5 2.2 5 5v30c0 2.8-2.2 5-5 5H5c-2.8 0-5-2.2-5-5V5c0-2.8 2.2-5 5-5z"/><g fill="#FFF"><path d="M6 8.3l4.6 4.6 1.7-1.5-1.5-3.1M25.7 21.2c.8.2 1.6-.2 1.8-1 .2-.8-.2-1.6-1-1.8l-.5-.2-.9 2.8.6.2zM25.3 18l-4.9-1.4c-.3-.1-.7.1-.7.4l-.5 1.6c-.1.3.1.7.4.8l4.9 1.4.8-2.8z"/><path d="M26.8 23c-.4-.4-1-.7-1.5-.9l-6.6-1.9-4-7.2c-.2-.4-.6-.7-1-.8-.9-.2-1.8.3-2 1.1-.1.4-.1.8.1 1.2l5.1 8.9c.4.5.9.8 1.5 1l9.2 2.6 4.3 4.3c.1.2.3.3.5.3.6.2 1.3-.2 1.5-.8.1-.4 0-.9-.3-1.2L26.8 23zM31.4 24.6l.7.4 1.2-1.3-.7-.9c.2-1.3-.7-2.5-2-2.7-1.3-.2-2.5.7-2.7 2-.2 1.3.7 2.5 2 2.7.6.1 1.1 0 1.5-.2z"/></g></symbol><symbol viewBox="0 0 40 40" id="seasonal"><title>Seasonal Access</title><rect width="40" height="40" rx="5" ry="5"/><path d="M33.85,26.81l-.4-.7H31.8l.82-1.44L32.21,24h-.82l-1.25,2.15h-3l1.51-2.63h2.5l.41-.71-.41-.71H29.46l.82-1.42-.41-.72h-.8l-.82,1.44-.82-1.44h-.81l-.41.71,1.25,2.15L25.94,25.4l-1.51-2.63,1.25-2.13L25.21,20H24.4l-.82,1.41L22.75,20h-.84l-.4.69.82,1.42H20.68l-.41.71.41.71h2.5l1.51,2.63H21.64L20.39,24h-.82l-.41.71L20,26.12H18.36l-.41.72.4.7H20L19.18,29l.41.71h.82l1.25-2.15h3l-1.51,2.63h-2.5l-.41.71.41.71h1.64L21.5,33l.41.72h.8l.82-1.42.85,1.43h.82l.41-.71-1.25-2.15,1.51-2.63,1.51,2.63L26.15,33l.41.71h.81l.82-1.42L29,33.75h.84l.4-.69-.82-1.42h1.66l.41-.71-.41-.71h-2.5l-1.5-2.71h3l1.25,2.13h.82l.41-.7L31.8,27.5h1.64Z" fill="#fff"/><polygon points="14.14 6.08 13.07 9.11 15.2 9.11 14.14 6.08" fill="#fff"/><polygon points="14.14 23.25 13.07 20.2 15.2 20.2 14.14 23.25" fill="#fff"/><polygon points="15.9 10.32 12.3 10.32 9.76 12.86 9.76 16.46 12.3 19 15.9 19 18.44 16.46 18.44 12.86 15.9 10.32" fill="#fff"/><polygon points="5.65 14.65 8.69 15.72 8.69 13.59 5.65 14.65" fill="#fff"/><polygon points="22.82 14.65 19.77 15.72 19.77 13.59 22.82 14.65" fill="#fff"/><polygon points="8.06 8.49 9.46 11.39 10.96 9.89 8.06 8.49" fill="#fff"/><polygon points="20.21 20.63 17.3 19.24 18.81 17.73 20.21 20.63" fill="#fff"/><polygon points="8.06 20.82 10.96 19.43 9.46 17.93 8.06 20.82" fill="#fff"/><polygon points="20.21 8.69 18.81 11.59 17.3 10.07 20.21 8.69" fill="#fff"/></symbol><symbol viewBox="0 0 40 40" id="skiis"><title>Cross Country Skis</title><rect width="40" height="40" rx="5" ry="5"/><path d="M6.19,30l.56-.91-.56-.26.35-.51.51.3L12.8,18.8l-.3-.13,3.11-4.41,7.09-4.19a65.3,65.3,0,0,1,9.08,6.17l1.64.6-.17,1.48-.74-.13L30.3,29.26A7.43,7.43,0,0,0,35,28.19l.35.44c-1.15,1.12-3,1.39-5.19,1.25l-.65,3.38.56.13-.09.56-.6-.09-.17.86-.56-.13.1-.84-.6-.09.13-.56.6.13L29.56,30H17.06l-.81,1.91h6.44a7.41,7.41,0,0,0,3.06-1l.51.69a9.42,9.42,0,0,1-3.76.9l-18.15.26V32H14.46L15,30h-.86v-.69h1l2.6-10.15a16.49,16.49,0,0,1,2.64-5.1l-2.59,1.16-1.39,1.16-2.5,2.76-.6-.13L7.5,28.89l.53.3-.17.44-.69-.26-.48.82Zm11.11-.69,7.5-.09-.47-5.92L20.4,21.75Zm4.54-10.64a28.54,28.54,0,0,1,5.1,3.75l-.56,6.88h3.24L32,18l-2.67-1.25L25.68,15a23.75,23.75,0,0,1-3.85,3.69Zm5-7.86a2.25,2.25,0,1,0-2.25-2.25h0a2.25,2.25,0,0,0,2.21,2.25Z" fill="#fff"/></symbol><symbol viewBox="0 0 40 40" id="snowmobiles"><title>Snowmobiles</title><rect width="40" height="40" rx="5" ry="5"/><path d="M24.11,19.7l-.26-3.17h.36L26.4,19.7l5.89,2.8.46,2.6a15.79,15.79,0,0,1-1.34,1.4,13.32,13.32,0,0,1-1.25,1,17.5,17.5,0,0,1-2,1.25l.16.53,2.19.89a1.76,1.76,0,0,0,.94.16,2.74,2.74,0,0,0,1.88-1l.84-1.15.63.36a5,5,0,0,1-1.14,1.59,3.54,3.54,0,0,1-2.3.91H21v-.84h4l1.61-.57v-.57H5.36A6.68,6.68,0,0,1,5.24,28a5.43,5.43,0,0,1,.64-2.67,6.09,6.09,0,0,1,.64-1,6.74,6.74,0,0,1,.69-.69L6.25,21H7.91l1.66,2.3h5.21c0-.68-.06-1.34,0-2a20.24,20.24,0,0,1,.84-5,18.91,18.91,0,0,1,.77-2.12,17.18,17.18,0,0,1,.87-1.8l2.65,2.14.36,3.17Zm-4.28,10H7.34a3.06,3.06,0,0,0,.6.6l.46.34a1.25,1.25,0,0,0,.81.36H17.5a2.26,2.26,0,0,0,.69-.11,4.55,4.55,0,0,0,.79-.37,3,3,0,0,0,.86-.76Zm2.14-6,1.46-2.4L20,20l-.62,1.46Z" fill="#fff"/><circle cx="19.76" cy="11.1" r="1.83" fill="#fff"/></symbol><symbol viewBox="0 0 40 40" id="snowshoes"><title>Snowshoes</title><rect width="40" height="40" rx="5" ry="5"/><path d="M14.7,32.24l2.4-6.46a34.86,34.86,0,0,1,.64-5A47.42,47.42,0,0,1,19.8,14.4l-2.12,1.75-2.5,4.44L14,20.07,15.89,15l4.44-4.06a3.31,3.31,0,0,1,1.25-.74,2,2,0,0,1,1.69.28l2.23,1.41a2.8,2.8,0,0,1,1.12,1.7L27.23,16l3.88,3.69-.71.75-4.54-2.69-1-2.12c-.18.36-.35.72-.55,1.07a7,7,0,0,1-1,1.44c-.33.34-.69.65-1,1l4.63,4.3-1.09,6.25,5.1-.1a1.71,1.71,0,0,1,1,.21.76.76,0,0,1,.34.86,1.17,1.17,0,0,1-.6.72,7,7,0,0,1-1.25.54,6.16,6.16,0,0,1-1.25.25,17.1,17.1,0,0,1-4.37-.07,45.31,45.31,0,0,1-6.94-1.86l-1,2.41,3.49.43a13.61,13.61,0,0,0,2-.07,2.2,2.2,0,0,1,.74.07.61.61,0,0,1,.36.33.87.87,0,0,1,0,.85c-.64,1-3,.89-3.85.86a25.51,25.51,0,0,1-3.81-.41,19.75,19.75,0,0,1-3.37-1c-1.66-.64-3.3-1.32-5-1.89l.1-.29ZM18,29.74,24,29.6V24.21l-3.35-1.84L19.33,27Z" fill="#fff"/><circle cx="26.11" cy="8.08" r="2.34" fill="#fff"/></symbol><symbol viewBox="0 0 40 40" id="stealth"><title>Stealth required</title><rect width="40" height="40" rx="5" ry="5"/><path d="M32.19,26.54c-.8-1-5.55-1.69-5.55-1.69a7.38,7.38,0,0,1,2.86-3.34l-4-2.39a7.78,7.78,0,0,0,.29-2v-.36c1.94-.39,3.18-1,3.18-1.54,0-.29-1.25-.53-3.15-.7L24.28,9.29A1.16,1.16,0,0,0,23,8.5L20.14,9h-.45L16.75,8.5a1.16,1.16,0,0,0-1.25.79L14,14.51c-1.87.16-3.15.41-3.15.7,0,.59,1.25,1.15,3.17,1.54v.36a7.76,7.76,0,0,0,.29,2l-4,2.39a7.38,7.38,0,0,1,2.86,3.34s-4.75.74-5.55,1.69a42.7,42.7,0,0,0-2.7,5h30A42.7,42.7,0,0,0,32.19,26.54Zm-12.32-4.2a5,5,0,0,1-5-5v-.45a34.59,34.59,0,0,0,5,.33,34.59,34.59,0,0,0,5-.33v.45a5,5,0,0,1-5,5Z" fill="#fff"/></symbol><symbol viewBox="0 0 40 40" id="strike"><title>Not allowed</title><path d="M35,2.5A2.5,2.5,0,0,1,37.5,5V35A2.5,2.5,0,0,1,35,37.5H5A2.5,2.5,0,0,1,2.5,35V5A2.5,2.5,0,0,1,5,2.5H35M35,0H5A5,5,0,0,0,0,5V35a5,5,0,0,0,5,5H35a5,5,0,0,0,5-5V5A5,5,0,0,0,35,0Z" fill="#ca3929"/><line x1="2.98" y1="2.81" x2="37.15" y2="36.99" fill="none" stroke="#ca3929" stroke-miterlimit="10" stroke-width="2"/></symbol><symbol viewBox="0 0 40 40" id="stroller"><title>Stroller accessible</title><rect width="40" height="40" rx="5" ry="5"/><path d="M25.81,19.74l2.94,2.36L32.5,25a1.41,1.41,0,0,0,2-.17,1.25,1.25,0,0,0,0-1.77L34.34,23,29.6,19.25s-.51-.55-1.89-.15l-2,.6" fill="#fff"/><circle cx="20.25" cy="12.31" r="2.7" fill="#fff"/><path d="M31.69,29.75a3.32,3.32,0,1,1-3.32-3.32h0a3.52,3.52,0,0,1,.69.09,1.7,1.7,0,0,0,.09-1,1.76,1.76,0,0,0-.6-1l-1.25-1-6,2a2.36,2.36,0,0,1-3-1.5h0l-.16-.35L16.79,26.9A3.32,3.32,0,1,1,15,26.4a3.36,3.36,0,0,1,.67.09l1.8-4.34-3-8.75L8.75,8.75a1.76,1.76,0,1,0-2.12,2.81.57.57,0,0,1,.06.8.55.55,0,0,1-.78,0h0A2.89,2.89,0,0,1,9.4,7.79l20,15.87a2.78,2.78,0,0,1,.81,3.18A3.27,3.27,0,0,1,31.69,29.75ZM15,31.19a1.44,1.44,0,1,0-1.44-1.44h0A1.44,1.44,0,0,0,15,31.19Zm13.35,0a1.44,1.44,0,1,0-1.44-1.44h0a1.44,1.44,0,0,0,1.44,1.44h0Z" fill="#fff"/></symbol><symbol viewBox="0 0 40 40" id="swimming"><title>May require swimming</title><rect width="40" height="40" rx="5" ry="5"/><path d="M34.66,29.63a4.44,4.44,0,0,1-1.81-.39,4.39,4.39,0,0,0-3.75,0,4.37,4.37,0,0,1-3.61,0,4.39,4.39,0,0,0-3.75,0,4.37,4.37,0,0,1-3.62,0,4.39,4.39,0,0,0-3.75,0,4.37,4.37,0,0,1-3.62,0,4.39,4.39,0,0,0-3.75,0,4.42,4.42,0,0,1-1.81.39V26.91A4.42,4.42,0,0,0,7,26.53a4.38,4.38,0,0,1,3.75,0,4.39,4.39,0,0,0,3.62,0,4.38,4.38,0,0,1,3.75,0,4.39,4.39,0,0,0,3.62,0,4.38,4.38,0,0,1,3.75,0,4.39,4.39,0,0,0,3.61,0,4.38,4.38,0,0,1,3.75,0,4.44,4.44,0,0,0,1.81.39Z" fill="#fff"/><path d="M30.17,23.25a3.5,3.5,0,1,0-3.5-3.5h0A3.41,3.41,0,0,0,30,23.25Z" fill="#fff"/><path d="M20.39,19.5h0L10,25.21a4.46,4.46,0,0,1,.76.27,4.39,4.39,0,0,0,3.63,0,4.38,4.38,0,0,1,3.75,0,4.39,4.39,0,0,0,3.62,0,4.38,4.38,0,0,1,3.75,0,4.44,4.44,0,0,0,1.81.39,4.3,4.3,0,0,0,1.25-.17L22.71,15.14l6.85-1.25a1.86,1.86,0,0,0-.69-3.66L19.28,12a1.86,1.86,0,0,0-1.5,1.58A2,2,0,0,0,18,15l2.5,4.4" fill="#fff"/></symbol><symbol viewBox="0 0 40 40" id="teamwork"><title>Teamwork Required</title><rect width="40" height="40" rx="5" ry="5"/><polygon points="21.69 11.3 23.96 13.75 28.35 13.97 33.65 20.01 32.56 20.8 29.38 17.9 28.69 21.04 32.05 30.6 30.8 31.16 26.99 24.45 23.63 31.5 22.09 31.5 24.82 20.4 24.94 16.25 22.82 15.45 20.44 11.64 21.69 11.3" fill="#fff"/><circle cx="27.81" cy="11.26" r="2.3" fill="#fff"/><polygon points="19.3 11.65 16.9 15.46 14.8 16.26 14.91 20.41 17.64 31.5 16.1 31.5 12.75 24.46 8.93 31.18 7.67 30.6 11.04 21.04 10.35 17.91 7.16 20.81 6.09 20.01 11.38 13.99 15.76 13.75 18.04 11.3 19.3 11.65" fill="#fff"/><circle cx="11.92" cy="11.28" r="2.3" fill="#fff"/></symbol><symbol viewBox="0 0 40 40" id="thorn"><title>Thorns</title><rect width="40" height="40" rx="5" ry="5"/><polygon points="26.56 25.61 22.06 23.41 22.06 10.99 26.43 9.72 22.06 7.59 22.06 4.16 18.23 4.16 18.23 13.56 18.23 14.22 12.26 15.95 18.23 18.88 18.23 28.81 13.72 30.11 18.23 32.33 18.23 36.34 22.06 36.34 22.06 26.91 26.56 25.61" fill="#fff"/></symbol><symbol viewBox="0 0 40 40" id="ticks"><title>Ticks</title><rect width="40" height="40" rx="5" ry="5"/><path d="M30.92,22.87l-2.06-2-.26-1.55-2.83-2-.43-1.46,1.38-.43L29,17.37l.34,1.71,1,.43-.16-2-2.91-3.75-2.4.09-.35-1.34,2.31.09,3-3.75L30,7.35,26.81,10.7l-3.42.18h0a3.6,3.6,0,0,0-3.1-2.13h0a3.86,3.86,0,0,0-3.86,2.06h0L13,10.65,9.83,7.31,10,8.75l3,3.75h2.31L15,13.83l-2.42-.08L9.65,17.5l-.17,2,1-.43.34-1.71,2.22-1.89,1.38.43L14,17.34l-2.76,2L11,20.86l-2.11,2-.12,2L10,24.71l.18-2.15,3.26-3.26-.52,3.2-1.46,1.79v2.15l-.94.51-.24,4.53a.94.94,0,0,0,1.88,0l-.1-1.35.18-2.75.69-1.55A18.2,18.2,0,0,0,20,30.13h0a16.33,16.33,0,0,0,6.86-4.29l.69,1.55.17,2.75-.1,1.32a.94.94,0,0,0,1.88,0l-.24-4.53-.94-.51V24.34L26.89,22.5l-.64-3.14,3.26,3.26.17,2.15,1.25.09Z" fill="#fff"/></symbol><symbol viewBox="0 0 40 40" id="touristOK"><title>Tourist Friendly</title><rect width="40" height="40" rx="5" ry="5"/><path d="M25.78,11a2.31,2.31,0,0,0-2.31-2.31H16.54A2.31,2.31,0,0,0,14.24,11v2.31H10.77v17.3H29.24V13.3H25.78Zm-2.31,2.31H16.54V11h6.93ZM6.15,15.61v12.7a2.31,2.31,0,0,0,2.31,2.31H9.61V13.3H8.46A2.31,2.31,0,0,0,6.15,15.61ZM31.54,13.3H30.39V30.61h1.15a2.31,2.31,0,0,0,2.31-2.31h0V15.61a2.31,2.31,0,0,0-2.3-2.31Z" fill="#fff"/></symbol><symbol viewBox="0 0 40 40" id="treeclimbing"><title>Tree Climbing</title><rect width="40" height="40" rx="5" ry="5"/><path d="M33.44,15.74c-.35-.69-.86-1.25-1.25-1.95a5.24,5.24,0,0,1-.71-2.73c0-.81.5-1.56.23-2.4a3.75,3.75,0,0,0-3.32-2c-1,0-2.14.38-3-.15a1,1,0,0,0-.49-.26.78.78,0,0,0-.39.16l-1.38.91c.43-.27-2.57-2.24-2.86-2.35a7.71,7.71,0,0,0-3.39-.1c-.33,0-.58.95-.87,1.08-.86.35-1.61-.4-2.5.49a10.09,10.09,0,0,0-1.35,1.95c-.86,1.34-2.16,2.5-2.5,4H7.26c-.95,0-.95,2.73-.82,3.22A5.48,5.48,0,0,0,7.83,18.2a3.33,3.33,0,0,0,2.7,1c.64-.09,1.34-.39,1.9-.06,1.12.64,1.69,1.6,3.16,1.75a2.3,2.3,0,0,0,1.73-.51,13.41,13.41,0,0,1,2.25,3.05c-.34,3.49-1.25,11-1,11.49s3.75.37,4.72.23c.5-.07-.1-8.75.17-12,.94-1.15,2.56-3.05,3.38-4a13.75,13.75,0,0,0,4.9,1C34.08,20.21,34.34,17.5,33.44,15.74ZM19.18,18.9c.14.55.29,1.17.39,1.71a4.06,4.06,0,0,1-1.84-.86,1.73,1.73,0,0,1,.36-.71A1.25,1.25,0,0,1,19.18,18.9Zm4.16,1.73a12.07,12.07,0,0,1,.5-2.56,2.41,2.41,0,0,1,.86.08,5.29,5.29,0,0,1,1,.49l.31.15a6.15,6.15,0,0,1-2.69,1.85Z" fill="#fff"/></symbol><symbol viewBox="0 0 40 40" id="wading"><title>May require wading</title><rect width="40" height="40" rx="5" ry="5"/><path d="M32.6,32.31a2.2,2.2,0,0,0,.82.88,2.39,2.39,0,0,0,1.25.33,2.6,2.6,0,0,0,.9-.24,2.42,2.42,0,0,0,.72-.57l.19-1.25a2.5,2.5,0,0,1-1.1.75,2.28,2.28,0,0,1-1.12.1,2.69,2.69,0,0,1-1.14-.49,3,3,0,0,1-.53-.55,2.74,2.74,0,0,1-1,.88,2.48,2.48,0,0,1-3.38-.86,2.88,2.88,0,0,1-1.08.82,2.94,2.94,0,0,1-1.25.2,2.59,2.59,0,0,1-1.42-.5,3.12,3.12,0,0,1-.49-.46,2.91,2.91,0,0,1-.6.6,2.64,2.64,0,0,1-2.26.36,2.5,2.5,0,0,1-.91-.53,3.45,3.45,0,0,1-.44-.5,2.5,2.5,0,0,1-.87.82,2.61,2.61,0,0,1-2.41,0,2.5,2.5,0,0,1-.91-.84,2.65,2.65,0,0,1-1.05.86,2.69,2.69,0,0,1-1.54.16A2.34,2.34,0,0,1,12,31.81a2.5,2.5,0,0,1-.38-.56,2.71,2.71,0,0,1-1.06.92,2.5,2.5,0,0,1-1.6.33,2.71,2.71,0,0,1-1.13-.55,3,3,0,0,1-.54-.7,2.41,2.41,0,0,1-.93,1,2.5,2.5,0,0,1-2.14.27,2.31,2.31,0,0,1-1-.78v.81a2.24,2.24,0,0,0,1,.8,2.33,2.33,0,0,0,1.34.07,3.3,3.3,0,0,0,1-.36,2.15,2.15,0,0,0,.71-.64,2.41,2.41,0,0,0,1,.86,2.5,2.5,0,0,0,1.37.2,3.23,3.23,0,0,0,.83-.27,2.6,2.6,0,0,0,.84-.7,3.5,3.5,0,0,0,.28-.37,2.21,2.21,0,0,0,1,1,2.5,2.5,0,0,0,1.46.23,3,3,0,0,0,.7-.26,2.61,2.61,0,0,0,1-.94,2.35,2.35,0,0,0,1.1,1,2.41,2.41,0,0,0,1.54.15,3.16,3.16,0,0,0,1.14-.5,2.24,2.24,0,0,0,.56-.62,2.39,2.39,0,0,0,1.05,1,2.34,2.34,0,0,0,1.37.25,2.29,2.29,0,0,0,1.58-1.08l.19.06a2.27,2.27,0,0,0,1.08,1,2.21,2.21,0,0,0,1.38.13,3,3,0,0,0,.75-.31,2.22,2.22,0,0,0,.89-1,2.4,2.4,0,0,0,.86,1,2.5,2.5,0,0,0,1.25.37,2.71,2.71,0,0,0,1.25-.36A2.41,2.41,0,0,0,32.6,32.31Z" fill="#fff"/><path d="M25,31.62l-.5-3.45a9.54,9.54,0,0,1-1.72-1.72A8.52,8.52,0,0,1,21.25,23a8.25,8.25,0,0,1,.2-3.75,7.79,7.79,0,0,1,.68-1.64,10.6,10.6,0,0,1,.64-1l2.13,3.51L30,22.21l.37-.81-4.7-3.26L24.19,12.5a12.33,12.33,0,0,0-1.11-.59,8.75,8.75,0,0,0-1.18-.43,6.65,6.65,0,0,0-.84-.24l-6.84,3-.62,7.09.94.25L16,15.76l1.88-.38L16.16,20.6,16,28.75,15,31.5h0l.08-.16.18-.34.21-.24.16-.2a2.5,2.5,0,0,0,.38.63,2,2,0,0,0,.51.43,2.28,2.28,0,0,0,.44.2l.87-1.44,1.25-3.95,3,2.64.81,2.7.74-.66.33-.27a4.36,4.36,0,0,0,.6.56Z" fill="#fff"/><circle cx="24.31" cy="8.97" r="2.54" fill="#fff"/></symbol><symbol viewBox="0 0 40 40" id="water"><title>Drinking water nearby</title><rect width="40" height="40" rx="5" ry="5"/><polygon points="7.47 6.36 11.81 33.79 27.75 33.79 32.58 6.46 29.88 6.46 25.44 30.99 14.61 30.99 10.07 6.36 7.47 6.36" fill="#fff"/><path d="M12.11,11.68a2.06,2.06,0,0,0,1,.69,2.7,2.7,0,0,0,1.14,0,1.91,1.91,0,0,0,1.07-.56,2.61,2.61,0,0,0,.35-.48,3.25,3.25,0,0,0,.67.58,2.94,2.94,0,0,0,1.33.4A2.66,2.66,0,0,0,19.09,12a2.58,2.58,0,0,0,.53-.38,4,4,0,0,0,.31-.34,3.11,3.11,0,0,0,.6.61,2.82,2.82,0,0,0,1.25.51,2.74,2.74,0,0,0,2-.49c.11-.09.23-.2.34-.3a3.68,3.68,0,0,0,.56.55,3.54,3.54,0,0,0,1.25.56,2.73,2.73,0,0,0,1.16,0,4.39,4.39,0,0,0,1-.34L28.42,10a3.2,3.2,0,0,1-.88.45,3,3,0,0,1-1.62,0A2.83,2.83,0,0,1,25,10a3.34,3.34,0,0,1-.66-.7,2.78,2.78,0,0,1-.51.54,2.85,2.85,0,0,1-1.15.5,2,2,0,0,1-1.18-.18,2.5,2.5,0,0,1-.9-.65,2.58,2.58,0,0,1-.31-.5,3.68,3.68,0,0,1-.46.63,3.34,3.34,0,0,1-1,.72A2.61,2.61,0,0,1,16.25,10a2.16,2.16,0,0,1-.41-.38,4.68,4.68,0,0,1-.34-.46,3.07,3.07,0,0,1-.82.63,2.82,2.82,0,0,1-1.45.21,2.76,2.76,0,0,1-.85-.2,3.2,3.2,0,0,1-.65-.39Z" fill="#fff"/></symbol><symbol viewBox="0 0 40 40" id="wheelchair"><title>Wheelchair accessible</title><rect width="40" height="40" rx="5" ry="5"/><path d="M12.73,7.5a2.77,2.77,0,1,1,5.54,0,2.61,2.61,0,0,1-2.44,2.77H15.7L16,16.06h7.15v2.31h-7l.15,1.76,9.47.34,3.82,8.86,3-1.15.9,1.72-5.24,2.24-3.89-9.57H14.06L13.13,9A3.37,3.37,0,0,1,12.73,7.5Zm11.4,18.91c-.4,3.75-3.94,6.25-7.75,6.25A7.26,7.26,0,0,1,9,25.54s0-.08,0-.11A7.34,7.34,0,0,1,12.5,19.1l-.19-2.68a9.8,9.8,0,0,0,4,18.75,9.76,9.76,0,0,0,9.13-5.88Z" fill="#fff"/></symbol><symbol viewBox="0 0 40 40" id="winter"><title>Available during winter</title><rect width="40" height="40" rx="5" ry="5"/><path d="M20.14,34.84,17.23,33l.11-1.46L19,31.46V30l-1.53-.33-1-.79,1.12-.9,1.46.11v-.79l-1-.23v-1h1v-.79l-2.14.79L16.49,24l-.79.34L16,25l-.67.56-.79-.79-.79.34.79,1.46-.23,1.12L12.89,27l-.79-.9-1.35.56.79,1.91-1.35.56L7.35,27.31V23.95l1.25-.56,1.13,1.46,1.35-.79-.93-1.69.23-1.25,1.46.56.66,1.48.9-.34L13,21.7l.67-.34.67.9.67-.45-1.8-1.69L15,18.67l-.67-.45-.45.79-.9-.45.34-1-.81-.34-.9,1.25L10.35,19l-.2-1.53.67-1.25L9.7,15.46,8.57,16.92l-1.34-.67.11-3.36,2.8-1.74,1.35.79-.79,1.69,1.46.56L13,12.94l1.25-.79.23,1.69-.79,1.25.79.45.56-.9.9.56-.34.9.79.45.23-2.5,2.25.79v-.67l-.9-.11L18,13l.9-.11-.19-.76-1.46-.23-1-.9,1.25-.9H19l0-1.39L17.1,8.3,17,7l2.93-1.8L23,7l-.11,1.35L21,8.57l.11,1.58,1.58.11,1.12.79-1,.9H21.15v1l1.12.11v1l-1,.11V15l2.25-.9.11,2.5.9-.34-.34-1.12.9-.45.68.9.79-.56-.79-1.46L26,12.31l1.46.67.68,1.35,1.25-.67-.68-1.8,1.25-.79,3.15,1.8-.23,3.25-1.12.79L30.5,15.45l-1.25.79L30,17.5,29.89,19l-1.46-.79-.68-1.12L27,17.5l.34.9-.9.45-.68-.67-.79.34,2.14,1.57L25,21.81l.79.45.56-.9,1,.45-.45,1,.79.45.9-1.35,1.25-.68L30,22.71l-.79,1.46,1.25.79,1.25-1.58,1.25.68v3.25l-3,1.8-1.35-.79.79-1.58-1.35-.68-.68,1.12-1.46.68-.11-1.46.68-1.25-.9-.45-.45.79L24,25l.56-.9-1-.23-.23,2.13-2.11-.86v1.06h1.12v1H21.25v1h1.69l1,.79-1.12.9H21v1.8h2v1.46ZM30.35,14.19l-7.74,3.93.23.56Zm0,11.9-7.29-4.6-.34.56Zm-20.54,0,7.69-3.83-.23-.68ZM10,14.41l7.22,4.34.34-.56ZM21,20l3,1.25,1-1.12-1-1.12Zm-2,.11L16.1,19,15,20l1,1.25Zm1.56,1.12L21,24.16l1.58.34L22.94,23Zm-1.1-.13-2.3,2.11.4,1.45,1.55-.35Zm1.1-2,2.25-2-.32-1.34-1.25.34Zm-1.12,0L19,16.25l-1.51-.5-.23,1.46ZM20.13,32l.34-8.64h-.79ZM19.91,8.46,19.69,17h.68Z" fill="#fff"/></symbol><symbol viewBox="0 0 40 40" id="wirelessbeacon"><title>Wireless Beacon</title><rect width="40" height="40" rx="5" ry="5"/><path d="M26.25,9.15a11.79,11.79,0,0,1,0,22.1,11.25,11.25,0,0,0,0-22.1Z" fill="#fff"/><path d="M23.75,12.31a8.42,8.42,0,0,1,0,15.82,8,8,0,0,0,0-15.82Z" fill="#fff"/><path d="M13.59,9.15a11.79,11.79,0,0,0,0,22.16,11.25,11.25,0,0,1,0-22.16Z" fill="#fff"/><path d="M16,12.31a8.42,8.42,0,0,0,0,15.82,8,8,0,0,1,0-15.82Z" fill="#fff"/><circle cx="20.13" cy="20.35" r="6.01" fill="#fff"/></symbol></svg>